<?xml version="1.0" encoding="UTF-8" standalone="no" ?>
<!DOCTYPE svg PUBLIC "-//W3C//DTD SVG 1.1//EN" "http://www.w3.org/Graphics/SVG/1.1/DTD/svg11.dtd">
<svg xmlns="http://www.w3.org/2000/svg" xmlns:xlink="http://www.w3.org/1999/xlink" version="1.1" width="300" height="300" viewBox="0 0 300 300" xml:space="preserve">
<desc>Created with Fabric.js 3.6.6</desc>
<defs>
</defs>
<g transform="matrix(0.03 0 0 -0.03 150.5 150)"  >
<radialGradient id="SVGID_194" gradientUnits="userSpaceOnUse" gradientTransform="matrix(1 0 0 1 60.43 60)"  cx="4939.786318093156" cy="4939.929171279844" r="4939.786318093156" fx="4939.786318093156" fy="4939.929171279844">
<stop offset="0%" style="stop-color: rgb(235, 32, 32)"/>
<stop offset="100%" style="stop-color: rgba(255, 255, 255, 0.83);"/>
</radialGradient>
<path style="stroke: none; stroke-width: 1; stroke-dasharray: none; stroke-linecap: butt; stroke-dashoffset: 0; stroke-linejoin: miter; stroke-miterlimit: 4; fill: url(#SVGID_194); fill-rule: nonzero; opacity: 1;"  transform=" translate(-5000.21, -4999.93)" d="M 720 9930 c -36 -5 -90 -20 -120 -34 c -30 -14 -60 -26 -66 -26 c -15 0 -138 -76 -205 -126 c -31 -24 -68 -60 -80 -81 c -13 -20 -36 -55 -51 -77 c -107 -160 -146 -311 -134 -525 c 7 -122 39 -237 90 -324 c 14 -23 36 -63 50 -88 c 13 -25 55 -75 91 -110 c 37 -35 131 -129 209 -209 c 77 -79 165 -167 194 -195 c 29 -27 117 -115 195 -194 c 78 -80 163 -165 189 -190 c 26 -25 125 -125 220 -220 c 95 -96 202 -202 237 -235 c 35 -34 129 -128 210 -210 c 80 -81 179 -180 220 -220 c 40 -39 128 -127 195 -195 c 66 -68 152 -153 190 -190 c 37 -36 134 -133 215 -215 c 80 -82 167 -170 194 -195 c 104 -100 296 -293 372 -372 c 44 -46 130 -132 190 -190 c 61 -58 148 -146 195 -195 c 48 -49 132 -134 188 -188 c 81 -78 102 -105 102 -126 c 0 -22 -21 -48 -102 -126 c -56 -55 -138 -137 -182 -183 c -64 -66 -247 -249 -354 -353 c -8 -7 -92 -92 -187 -188 c -96 -96 -196 -196 -222 -221 c -26 -25 -114 -113 -194 -195 c -81 -82 -177 -179 -215 -215 c -38 -37 -135 -134 -215 -215 c -81 -82 -170 -171 -198 -199 c -150 -146 -411 -406 -451 -448 c -25 -27 -119 -121 -209 -210 c -90 -89 -193 -193 -230 -231 c -36 -37 -133 -134 -215 -215 c -82 -80 -169 -168 -195 -195 c -38 -41 -192 -194 -374 -373 c -70 -69 -172 -270 -193 -381 c -25 -132 -14 -379 21 -441 c 8 -14 28 -55 45 -91 c 51 -111 131 -224 185 -262 c 220 -155 342 -198 572 -198 c 116 0 216 22 313 69 c 117 57 230 131 253 167 c 4 7 75 79 158 161 c 83 81 183 180 222 220 c 40 40 137 137 217 215 c 79 79 165 164 190 190 c 25 26 121 123 215 215 c 93 93 199 199 235 237 c 36 38 125 128 199 200 c 74 72 173 171 220 220 c 47 49 142 143 210 210 c 68 66 156 154 195 195 c 39 40 136 137 215 215 c 80 77 165 162 190 188 c 39 41 181 182 400 398 c 31 31 106 107 166 170 c 61 63 149 151 195 195 c 47 45 130 127 184 183 c 78 80 105 102 126 102 c 21 0 48 -22 126 -102 c 54 -56 137 -138 183 -183 c 46 -44 141 -138 210 -209 c 69 -71 157 -159 195 -195 c 64 -63 258 -257 357 -359 c 25 -26 110 -111 190 -188 c 79 -78 176 -175 215 -215 c 39 -41 127 -128 195 -195 c 68 -66 163 -161 210 -210 c 47 -49 146 -148 220 -220 c 74 -72 163 -162 199 -200 c 36 -38 142 -144 235 -237 c 94 -92 190 -189 215 -215 c 25 -26 111 -111 190 -188 c 80 -78 177 -175 217 -215 c 39 -41 139 -141 222 -224 c 83 -82 168 -167 188 -188 c 70 -70 270 -172 381 -193 c 125 -24 382 -12 441 21 c 14 8 51 25 81 38 c 52 22 112 59 205 125 c 54 38 134 151 185 262 c 17 36 37 77 45 91 c 18 32 35 169 35 280 c 0 192 -45 316 -187 516 c -21 29 -40 53 -44 53 c -6 0 -208 200 -350 347 c -26 26 -114 114 -195 194 c -82 81 -179 178 -215 215 c -37 38 -140 142 -230 231 c -90 89 -184 183 -209 210 c -25 26 -111 112 -190 189 c -80 78 -168 166 -196 195 c -27 30 -129 131 -225 226 c -95 95 -195 194 -220 220 c -26 26 -113 114 -195 194 c -82 81 -179 178 -216 215 c -36 38 -124 126 -195 196 c -70 69 -158 157 -194 195 c -37 37 -125 125 -195 194 c -71 69 -165 164 -210 210 c -44 46 -126 128 -182 183 c -81 78 -102 104 -102 126 c 0 21 21 48 102 126 c 56 54 140 139 188 188 c 47 49 134 137 195 195 c 60 58 134 131 165 162 c 278 282 356 360 397 400 c 27 25 114 113 194 195 c 81 82 178 179 215 215 c 38 37 124 122 190 190 c 67 68 161 162 210 209 c 49 47 148 146 220 220 c 72 74 160 162 195 196 c 35 33 142 139 237 235 c 95 95 194 195 220 220 c 26 25 111 110 190 190 c 78 79 175 176 215 215 c 39 39 124 125 187 190 c 63 65 137 138 164 162 c 53 48 104 111 136 169 c 11 21 30 52 41 70 c 44 69 78 194 85 309 c 12 216 -26 370 -134 530 c -15 22 -38 57 -51 77 c -12 21 -49 57 -80 81 c -69 52 -190 126 -206 126 c -7 0 -33 11 -59 25 c -62 33 -204 49 -350 41 c -118 -7 -234 -40 -319 -90 c -23 -14 -62 -36 -87 -50 c -25 -13 -62 -42 -82 -63 c -21 -21 -117 -117 -214 -213 c -97 -96 -197 -197 -223 -224 c -25 -27 -113 -115 -195 -195 c -82 -80 -168 -165 -190 -189 c -69 -71 -352 -354 -403 -402 c -26 -26 -128 -127 -226 -225 c -98 -99 -185 -187 -193 -195 c -42 -41 -384 -384 -442 -444 c -37 -38 -134 -135 -216 -215 c -82 -80 -170 -168 -195 -194 c -25 -26 -125 -126 -221 -222 c -96 -95 -181 -179 -188 -187 c -104 -107 -287 -290 -353 -354 c -46 -44 -128 -126 -183 -182 c -78 -81 -104 -102 -126 -102 c -22 0 -48 21 -126 102 c -55 56 -137 138 -184 182 c -46 45 -134 133 -195 196 c -60 63 -134 137 -163 165 c -55 52 -322 318 -403 402 c -25 26 -113 114 -195 194 c -82 80 -179 177 -216 215 c -55 58 -185 187 -415 417 c -24 23 -123 123 -220 222 c -98 98 -200 199 -226 225 c -51 48 -334 331 -403 402 c -22 24 -108 109 -190 190 c -82 81 -169 169 -194 195 c -25 26 -124 125 -220 219 c -96 94 -182 180 -190 190 c -9 10 -36 34 -60 52 c -212 157 -402 205 -680 172 z" stroke-linecap="round" />
</g>
</svg>