<?xml version="1.0" encoding="UTF-8" standalone="no" ?>
<!DOCTYPE svg PUBLIC "-//W3C//DTD SVG 1.1//EN" "http://www.w3.org/Graphics/SVG/1.1/DTD/svg11.dtd">
<svg xmlns="http://www.w3.org/2000/svg" xmlns:xlink="http://www.w3.org/1999/xlink" version="1.1" width="640" height="640" viewBox="0 0 640 640" xml:space="preserve">
<desc>Created with Fabric.js 3.6.6</desc>
<defs>
</defs>
<g transform="matrix(0.07 0 0 -0.07 318.23 103.22)"  >
<path style="stroke: none; stroke-width: 1; stroke-dasharray: none; stroke-linecap: butt; stroke-dashoffset: 0; stroke-linejoin: miter; stroke-miterlimit: 4; fill: rgb(0,0,0); fill-rule: nonzero; opacity: 1;"  transform=" translate(-4390.09, -7512.5)" d="M 4190 8840 c 10 -7 -1 -8 -35 -4 c -39 4 -47 3 -35 -6 c 12 -9 11 -10 -8 -5 c -28 8 -84 -3 -77 -16 c 4 -5 -1 -6 -9 -3 c -20 8 -88 -15 -81 -27 c 4 -5 0 -6 -8 -3 c -16 6 -93 -30 -175 -83 c -29 -18 -94 -75 -145 -126 c -50 -50 -82 -85 -71 -77 c 11 8 4 0 -15 -18 c -20 -19 -29 -31 -21 -27 c 8 4 4 -3 -10 -15 c -14 -12 -18 -19 -10 -15 c 8 4 4 -3 -10 -15 c -14 -12 -18 -19 -10 -15 c 10 4 9 2 -2 -8 c -10 -8 -15 -17 -11 -20 c 3 -4 1 -7 -6 -7 c -7 0 -9 -4 -6 -10 c 3 -5 1 -10 -5 -10 c -6 0 -8 -4 -5 -10 c 3 -5 1 -10 -5 -10 c -6 0 -8 -4 -5 -10 c 3 -5 1 -10 -5 -10 c -6 0 -8 -4 -5 -10 c 3 -5 1 -10 -5 -10 c -6 0 -8 -4 -5 -10 c 3 -5 2 -10 -4 -10 c -6 0 -8 -7 -5 -15 c 4 -8 1 -15 -5 -15 c -6 0 -8 -7 -5 -15 c 4 -8 1 -15 -5 -15 c -6 0 -8 -7 -4 -17 c 4 -11 3 -14 -6 -9 c -9 6 -10 0 -5 -20 c 5 -19 4 -25 -5 -20 c -9 6 -10 0 -5 -20 c 5 -20 4 -25 -6 -19 c -9 6 -10 0 -5 -25 c 5 -24 4 -31 -5 -25 c -9 6 -11 -5 -6 -46 c 5 -39 4 -50 -3 -39 c -8 11 -10 -11 -10 -80 c 1 -69 4 -87 10 -65 c 5 20 6 9 3 -35 c -4 -49 -2 -61 6 -50 c 8 11 9 5 5 -25 c -5 -30 -4 -36 4 -25 c 8 11 9 7 4 -19 c -4 -23 -3 -32 5 -28 c 6 5 8 -1 4 -15 c -3 -13 -1 -19 5 -15 c 7 5 9 -1 5 -15 c -3 -13 -1 -19 5 -15 c 7 4 9 0 6 -11 c -7 -29 87 -202 137 -252 c 25 -24 34 -36 20 -25 c -52 42 64 -86 192 -210 c 73 -71 117 -112 98 -89 c -19 22 -1 6 40 -36 c 41 -42 68 -66 60 -55 c -8 12 5 1 29 -24 c 24 -26 40 -39 35 -31 c -5 9 4 2 19 -15 c 16 -16 26 -23 22 -15 c -4 8 6 1 22 -15 c 15 -17 24 -24 19 -15 c -5 8 8 -3 29 -25 c 20 -22 33 -33 29 -25 c -5 9 2 4 15 -10 c 13 -14 20 -18 16 -10 c -4 8 3 4 15 -10 c 12 -14 19 -18 15 -10 c -4 8 3 4 15 -10 c 12 -14 19 -18 15 -10 c -4 8 3 4 14 -9 c 12 -13 21 -19 21 -15 c 0 5 7 0 15 -10 c 8 -11 15 -16 15 -10 c 0 5 10 -2 21 -16 c 11 -14 18 -18 14 -10 c -4 8 3 4 15 -10 c 12 -14 19 -18 15 -10 c -4 8 1 6 9 -4 c 9 -11 16 -16 16 -11 c 0 5 7 0 16 -11 c 8 -10 12 -13 9 -6 c -6 11 -3 12 14 3 c 11 -7 21 -17 21 -23 c 0 -6 3 -8 7 -5 c 3 4 12 -1 20 -11 c 10 -11 12 -12 8 -2 c -4 10 -2 9 8 -2 c 8 -10 17 -15 20 -11 c 4 3 7 0 7 -7 c 0 -7 3 -10 7 -7 c 3 4 12 -1 20 -11 c 10 -11 12 -12 8 -2 c -4 10 -2 9 8 -2 c 8 -10 17 -15 20 -11 c 4 3 7 1 7 -6 c 0 -7 5 -9 10 -6 c 6 3 10 1 10 -5 c 0 -6 5 -8 10 -5 c 6 3 10 1 10 -5 c 0 -6 5 -8 10 -5 c 6 3 10 1 10 -5 c 0 -6 5 -8 10 -5 c 6 3 10 1 10 -5 c 0 -6 5 -8 10 -5 c 6 3 10 1 10 -5 c 0 -6 5 -8 10 -5 c 6 3 10 1 10 -5 c 0 -6 4 -8 10 -5 c 6 3 10 1 10 -5 c 0 -6 5 -8 10 -5 c 6 3 10 1 10 -5 c 0 -6 4 -9 9 -5 c 14 8 61 -16 54 -28 c -4 -6 0 -8 10 -4 c 10 3 17 2 17 -4 c 0 -6 5 -7 10 -4 c 6 3 10 2 10 -4 c 0 -6 7 -7 17 -4 c 12 5 14 3 8 -7 c -6 -10 -4 -12 8 -7 c 10 3 17 2 17 -3 c 0 -5 7 -6 17 -3 c 12 5 14 3 8 -7 c -6 -10 -4 -12 8 -7 c 10 3 17 2 17 -3 c 0 -5 7 -6 17 -3 c 12 5 14 3 8 -7 c -6 -10 -4 -12 8 -7 c 10 3 17 2 17 -3 c 0 -5 7 -7 15 -4 c 8 4 15 1 15 -6 c 0 -6 5 -8 10 -5 c 6 3 10 2 10 -4 c 0 -6 7 -8 15 -5 c 8 4 15 1 15 -5 c 0 -6 7 -8 17 -4 c 11 5 14 3 8 -6 c -5 -10 -2 -11 14 -6 c 13 4 21 2 21 -5 c 0 -7 7 -10 15 -6 c 8 3 15 1 15 -5 c 0 -6 9 -8 21 -4 c 12 4 19 3 16 -1 c -3 -5 24 -9 59 -9 c 35 0 64 4 64 8 c 0 5 4 5 10 2 c 10 -6 90 71 82 80 c -3 3 0 5 7 5 c 7 0 9 5 6 10 c -3 6 -2 10 4 10 c 6 0 8 14 6 33 c -4 25 -3 28 4 12 c 8 -17 10 -15 10 15 c 1 27 -2 32 -10 20 c -8 -11 -9 -8 -4 13 c 7 34 -30 104 -79 151 c -17 16 -24 26 -16 22 c 8 -4 4 2 -10 14 c -14 12 -18 19 -10 15 c 8 -4 4 3 -10 15 c -14 12 -19 19 -12 15 c 8 -4 7 5 -4 29 c -10 19 -22 32 -27 29 c -6 -3 -7 -1 -3 6 c 10 16 -3 53 -16 45 c -6 -4 -8 -2 -5 4 c 9 14 -3 43 -14 36 c -5 -3 -6 3 -2 12 c 5 13 3 15 -7 9 c -9 -5 -11 -4 -6 4 c 11 17 -3 73 -16 65 c -7 -4 -8 -2 -4 5 c 4 6 4 25 1 43 c -5 23 -9 27 -16 17 c -6 -9 -7 -4 -3 15 c 4 17 3 27 -2 23 c -5 -3 -8 13 -6 36 c 2 31 1 38 -7 27 c -8 -11 -9 1 -5 40 c 3 30 2 50 -3 44 c -4 -7 -9 48 -9 122 c -1 87 2 132 8 128 c 7 -4 8 5 3 26 c -5 24 -4 31 5 25 c 9 -6 10 1 5 25 c -5 25 -4 31 5 25 c 10 -6 11 1 6 30 c -5 27 -4 35 4 30 c 9 -5 10 -1 5 15 c -5 16 -4 20 5 15 c 9 -5 10 -1 5 15 c -5 16 -4 20 5 15 c 9 -5 10 -1 5 15 c -5 17 -4 20 5 15 c 10 -6 11 -1 6 19 c -5 19 -3 26 4 21 c 7 -5 9 2 4 21 c -5 21 -4 25 6 19 c 10 -6 11 0 6 30 c -4 20 -4 35 1 32 c 4 -3 8 60 8 139 c 0 79 -3 136 -7 126 c -5 -9 -5 3 -2 28 c 4 33 2 41 -5 30 c -8 -11 -9 -6 -4 19 c 4 25 3 32 -6 27 c -9 -6 -10 0 -5 20 c 5 18 3 25 -4 20 c -6 -4 -8 2 -4 16 c 3 13 1 19 -5 15 c -7 -5 -9 1 -5 15 c 4 16 2 19 -8 13 c -9 -5 -11 -4 -6 4 c 10 16 -3 53 -16 45 c -7 -4 -8 -2 -4 4 c 6 11 -38 112 -50 112 c -3 0 -2 -5 2 -12 c 4 -7 3 -8 -5 -4 c -6 4 -8 12 -5 18 c 4 6 -4 20 -17 30 c -13 11 -18 16 -10 12 c 27 -14 -50 82 -117 147 c -36 35 -58 52 -47 38 c 11 -14 3 -7 -19 15 c -21 23 -35 34 -31 26 c 3 -8 -6 -1 -20 15 c -15 17 -24 23 -20 15 c 3 -8 -1 -6 -9 4 c -9 11 -16 16 -16 11 c 0 -5 -7 0 -16 11 c -8 10 -13 12 -9 4 c 4 -10 2 -9 -8 2 c -8 10 -17 15 -20 11 c -4 -3 -7 -1 -7 6 c 0 7 -4 9 -10 6 c -5 -3 -10 -1 -10 5 c 0 6 -4 8 -10 5 c -5 -3 -10 -1 -10 5 c 0 6 -4 8 -10 5 c -5 -3 -10 -1 -10 5 c 0 6 -4 8 -10 5 c -5 -3 -10 -2 -10 4 c 0 6 -7 8 -15 5 c -8 -4 -15 -1 -15 5 c 0 6 -7 8 -17 4 c -11 -5 -14 -3 -8 6 c 6 10 2 11 -15 6 c -16 -5 -20 -4 -15 5 c 5 9 2 10 -14 5 c -13 -4 -21 -2 -21 5 c 0 7 -8 9 -21 5 c -16 -5 -19 -4 -14 5 c 6 9 -1 10 -25 5 c -24 -5 -31 -4 -25 5 c 5 9 -5 10 -41 5 c -36 -5 -45 -4 -34 4 c 11 8 -16 11 -100 11 c -78 0 -110 -3 -100 -10 z m 163 -694 c -4 -5 4 -7 15 -4 c 12 4 22 2 22 -4 c 0 -5 5 -6 10 -3 c 6 3 10 1 10 -5 c 0 -6 5 -8 10 -5 c 6 3 10 1 10 -6 c 0 -7 3 -10 6 -7 c 3 4 20 -8 37 -26 c 20 -20 24 -22 12 -7 l -20 26 l 27 -24 c 15 -13 24 -29 22 -36 c -3 -7 0 -16 7 -21 c 8 -5 10 -3 4 6 c -5 8 -4 11 3 6 c 6 -4 8 -14 5 -23 c -4 -11 -3 -14 5 -9 c 8 5 10 1 5 -10 c -4 -11 -3 -15 4 -11 c 7 5 9 -1 5 -15 c -3 -11 -1 -19 4 -16 c 5 4 8 -15 7 -40 c -2 -38 0 -42 6 -22 c 9 24 9 24 10 -7 c 1 -18 -4 -33 -10 -33 c -7 0 -8 -11 -4 -31 c 6 -24 4 -30 -6 -24 c -9 6 -11 3 -6 -8 c 3 -10 2 -17 -4 -17 c -6 0 -7 -4 -4 -10 c 3 -5 1 -10 -6 -10 c -7 0 -10 -3 -7 -6 c 3 -3 -11 -22 -31 -42 l -37 -37 l 36 30 l 35 30 l -34 -37 c -18 -20 -39 -34 -46 -32 c -7 3 -16 0 -21 -7 c -5 -8 -3 -10 6 -4 c 8 5 11 4 6 -3 c -4 -6 -14 -8 -23 -5 c -12 5 -14 3 -8 -7 c 5 -9 4 -11 -4 -6 c -6 4 -26 3 -44 -2 c -51 -16 -148 -22 -141 -10 c 5 7 0 9 -14 6 c -12 -4 -22 -2 -22 4 c 0 5 -4 6 -10 3 c -5 -3 -10 -1 -10 6 c 0 7 -3 10 -6 6 c -4 -3 -14 2 -23 11 c -9 10 -12 12 -7 5 c 5 -7 6 -13 2 -13 c -3 0 -19 18 -35 40 c -15 21 -32 36 -36 32 c -3 -4 -6 -2 -5 3 c 5 21 0 36 -10 30 c -6 -4 -7 1 -3 11 c 4 11 3 15 -4 11 c -7 -5 -9 1 -5 15 c 3 13 1 19 -5 15 c -6 -4 -8 4 -6 21 c 3 20 2 23 -5 13 c -8 -11 -10 1 -9 41 c 1 33 5 54 10 51 c 6 -4 7 5 3 21 c -4 16 -2 26 4 26 c 6 0 8 5 5 10 c -3 6 -1 10 5 10 c 6 0 8 5 5 10 c -3 6 -1 10 6 10 c 7 0 10 3 6 6 c -3 3 4 16 17 28 c 12 11 14 15 4 7 c -31 -24 -20 -7 19 29 c 20 19 33 28 29 20 c -4 -8 2 -4 14 10 c 12 14 19 19 15 13 c -4 -9 -1 -11 9 -7 c 9 3 13 11 9 17 c -3 6 -1 7 5 3 c 6 -4 23 -4 37 0 c 15 4 22 9 17 13 c -6 3 21 6 58 6 c 38 0 66 -4 63 -9 z" stroke-linecap="round" />
</g>
<g transform="matrix(0.07 0 0 -0.07 486.77 176.87)"  >
<radialGradient id="SVGID_2559" gradientUnits="userSpaceOnUse" gradientTransform="matrix(1 0 0 1 5803 5015.75)"  cx="972.1207181734771" cy="1454.6227766016837" r="972.1207181734771" fx="972.1207181734771" fy="1454.6227766016837">
<stop offset="0%" style="stop-color:rgba(224, 136, 136, 1);"/>
<stop offset="100%" style="stop-color:rgba(255, 0, 0, 1);"/>
</radialGradient>
<path style="stroke: none; stroke-width: 1; stroke-dasharray: none; stroke-linecap: butt; stroke-dashoffset: 0; stroke-linejoin: miter; stroke-miterlimit: 4; fill: url(#SVGID_2559); fill-rule: nonzero; opacity: 1;"  transform=" translate(-6775.12, -6470.38)" d="M 6638 7918 c 9 -5 -3 -5 -28 -2 c -33 4 -41 2 -30 -5 c 11 -8 6 -9 -19 -4 c -24 4 -32 3 -27 -5 c 5 -8 2 -10 -8 -6 c -20 8 -118 -25 -111 -37 c 4 -5 0 -6 -8 -3 c -14 5 -117 -40 -117 -52 c 0 -3 5 -2 12 2 c 7 4 8 3 4 -5 c -4 -6 -12 -9 -17 -5 c -13 8 -56 -20 -94 -60 c -16 -18 -25 -25 -20 -16 c 6 8 -10 -7 -35 -33 c -25 -27 -68 -70 -95 -95 c -28 -24 -43 -41 -35 -36 c 9 5 4 -2 -10 -16 c -14 -14 -21 -23 -15 -20 c 6 3 2 -3 -8 -12 c -11 -10 -16 -18 -11 -18 c 4 0 -1 -7 -12 -16 c -10 -8 -12 -13 -4 -9 c 10 4 9 2 -2 -8 c -10 -8 -15 -17 -11 -20 c 3 -4 1 -7 -6 -7 c -7 0 -10 -4 -7 -9 c 3 -5 -1 -11 -9 -15 c -8 -3 -12 -12 -9 -21 c 3 -8 1 -15 -6 -15 c -6 0 -8 -4 -5 -10 c 3 -5 1 -10 -5 -10 c -6 0 -8 -4 -5 -10 c 3 -5 2 -10 -4 -10 c -6 0 -8 -7 -5 -15 c 4 -8 1 -15 -5 -15 c -6 0 -8 -7 -4 -17 c 5 -11 3 -14 -6 -8 c -10 6 -11 2 -6 -15 c 5 -17 4 -20 -5 -15 c -10 6 -11 1 -6 -19 c 5 -19 3 -26 -4 -21 c -7 5 -9 -2 -4 -21 c 5 -20 4 -25 -6 -19 c -9 6 -10 0 -5 -25 c 5 -24 4 -31 -5 -25 c -8 5 -10 -12 -6 -66 c 3 -48 2 -63 -3 -44 c -5 18 -8 -62 -8 -200 c 0 -133 4 -215 8 -195 c 5 21 6 -8 4 -70 c -3 -69 -1 -98 5 -85 c 6 14 8 2 4 -40 c -3 -43 -2 -54 5 -40 c 7 14 8 3 5 -40 c -4 -46 -3 -56 6 -45 c 8 11 9 3 4 -34 c -5 -34 -3 -47 4 -42 c 7 4 9 -6 6 -31 c -4 -28 -3 -34 5 -23 c 8 11 9 5 5 -25 c -4 -30 -3 -36 5 -25 c 8 11 9 5 5 -25 c -4 -30 -3 -36 5 -25 c 8 11 9 5 5 -25 c -4 -31 -3 -37 6 -25 c 9 12 10 11 5 -8 c -9 -30 4 -84 17 -76 c 7 4 8 2 4 -5 c -10 -15 13 -113 24 -106 c 5 3 6 -3 4 -13 c -7 -23 44 -184 56 -177 c 4 3 6 -5 2 -17 c -3 -13 -1 -19 5 -15 c 7 5 9 -1 5 -15 c -3 -14 -1 -19 6 -14 c 7 4 10 2 6 -7 c -7 -21 35 -129 48 -121 c 7 5 8 2 4 -5 c -10 -15 13 -73 25 -65 c 5 3 6 -3 2 -12 c -5 -13 -3 -15 7 -9 c 9 5 11 4 6 -4 c -9 -15 3 -53 15 -46 c 5 3 6 -2 2 -11 c -4 -12 -3 -15 5 -10 c 8 4 10 2 6 -8 c -7 -18 31 -95 60 -119 c 11 -10 15 -16 8 -12 c -23 12 13 -47 49 -80 c 17 -16 29 -23 25 -15 c -6 12 -5 12 6 -1 c 7 -9 19 -14 26 -12 c 6 3 12 1 12 -4 c 0 -12 121 -8 145 4 c 24 13 77 69 55 59 c -9 -5 -8 -2 2 7 c 10 8 15 17 11 20 c -3 4 -1 7 5 7 c 6 0 9 7 6 15 c -4 8 -1 15 6 15 c 8 0 10 9 6 26 c -5 19 -3 24 5 18 c 9 -5 10 1 6 24 c -4 20 -2 32 4 32 c 7 0 8 12 4 31 c -5 23 -4 30 5 24 c 9 -6 10 1 5 25 c -6 25 -4 31 6 25 c 9 -6 11 -3 6 8 c -3 10 -2 17 3 17 c 5 0 7 7 4 15 c -4 8 -1 15 5 15 c 6 0 8 7 4 17 c -5 11 -3 14 6 8 c 10 -6 11 -2 6 15 c -5 17 -4 21 6 15 c 9 -6 11 -3 6 8 c -3 10 -2 17 3 17 c 5 0 7 7 4 15 c -4 8 -1 15 6 15 c 6 0 8 5 5 10 c -3 6 -1 10 5 10 c 6 0 8 5 5 10 c -3 6 -1 10 6 10 c 7 0 9 3 6 7 c -4 3 1 12 11 20 c 9 8 11 11 4 8 c -11 -6 -12 -3 -3 14 c 7 11 16 21 22 21 c 6 0 7 5 4 10 c -3 6 -1 10 5 10 c 6 0 8 5 5 10 c -3 6 -1 10 4 10 c 6 0 10 4 9 9 c -2 5 6 17 17 26 c 11 9 13 14 5 10 c -8 -4 -1 6 15 22 c 17 15 26 26 20 23 c -6 -3 3 8 20 23 c 16 16 25 26 19 23 c -6 -3 29 36 79 87 c 49 51 94 91 99 89 c 15 -4 148 94 140 103 c -4 5 -2 5 5 1 c 16 -9 92 29 116 58 c 10 11 16 14 12 6 c -4 -8 3 -4 15 10 c 12 14 18 18 14 10 c -7 -13 -6 -13 11 0 c 28 22 212 209 200 203 c -5 -2 4 8 20 22 c 17 15 23 24 15 20 c -8 -4 -4 3 10 15 c 14 12 18 19 10 15 c -10 -4 -9 -2 2 8 c 10 8 15 17 11 20 c -3 4 -1 7 5 7 c 7 0 11 3 11 8 c -3 20 2 32 13 26 c 6 -4 8 -3 5 4 c -10 15 3 43 16 35 c 6 -4 8 0 4 10 c -3 10 -2 17 4 17 c 6 0 7 5 4 10 c -3 6 -2 10 4 10 c 6 0 7 7 4 17 c -5 11 -3 14 6 8 c 10 -6 11 -2 6 15 c -5 16 -4 20 5 15 c 9 -5 10 -1 5 15 c -5 16 -4 20 4 15 c 8 -5 10 1 5 21 c -5 19 -4 25 5 20 c 9 -6 10 0 5 20 c -5 20 -4 25 6 19 c 9 -6 10 0 5 25 c -5 23 -4 30 4 25 c 9 -5 10 16 7 77 c -3 57 -2 70 3 43 c 7 -35 8 -32 8 30 c 1 55 -1 63 -8 40 c -5 -20 -7 -5 -3 45 c 3 55 2 71 -6 60 c -8 -11 -9 -5 -4 24 c 5 30 4 37 -6 31 c -9 -5 -10 -2 -6 13 c 8 24 -3 74 -14 67 c -5 -3 -6 5 -2 17 c 4 16 2 19 -8 13 c -9 -5 -11 -4 -6 4 c 9 15 -3 53 -15 46 c -5 -3 -6 0 -3 8 c 5 14 -40 117 -52 117 c -3 0 -2 -5 2 -12 c 4 -7 3 -8 -5 -4 c -6 4 -9 12 -5 17 c 8 13 -20 56 -60 94 c -18 17 -23 23 -12 15 c 27 -20 -54 78 -90 110 c -18 15 -14 8 11 -21 c 22 -25 11 -16 -24 20 c -36 36 -61 59 -57 51 c 4 -8 -5 -1 -19 15 c -15 17 -24 23 -20 15 c 4 -8 -3 -4 -15 10 c -12 14 -19 18 -15 10 c 4 -8 -3 -4 -15 10 c -12 14 -19 18 -15 10 c 4 -10 2 -9 -8 2 c -8 10 -17 15 -20 11 c -4 -3 -7 -1 -7 6 c 0 7 -4 9 -10 6 c -5 -3 -10 -1 -10 5 c 0 6 -4 8 -10 5 c -5 -3 -10 -1 -10 5 c 0 6 -4 8 -10 5 c -5 -3 -10 -1 -10 5 c 0 6 -4 8 -10 5 c -5 -3 -10 -2 -10 4 c 0 6 -7 7 -17 4 c -12 -5 -14 -3 -8 7 c 6 10 4 12 -8 7 c -10 -4 -17 -2 -17 4 c 0 6 -7 9 -15 5 c -8 -3 -15 -1 -15 4 c 0 5 -7 7 -15 4 c -8 -4 -15 -1 -15 6 c 0 7 -8 9 -20 5 c -12 -4 -20 -2 -20 5 c 0 6 -10 8 -26 4 c -20 -5 -25 -4 -19 6 c 6 9 0 10 -25 5 c -18 -4 -30 -3 -27 1 c 3 5 -62 9 -144 9 c -81 0 -141 -3 -131 -7 z m 166 -679 c -4 -8 3 -9 26 -4 c 25 6 31 4 25 -6 c -6 -9 -3 -11 8 -6 c 10 3 17 2 17 -4 c 0 -6 5 -7 10 -4 c 6 3 10 1 10 -6 c 0 -7 3 -9 7 -6 c 3 4 12 -1 20 -11 c 10 -11 12 -12 8 -2 c -4 8 3 4 16 -10 c 12 -14 26 -24 30 -22 c 5 1 8 -1 8 -5 c -3 -21 2 -34 11 -28 c 6 4 10 3 9 -2 c -3 -20 2 -34 11 -28 c 6 4 7 -1 3 -11 c -4 -11 -3 -15 4 -11 c 7 5 9 -1 5 -15 c -3 -12 -1 -19 4 -15 c 6 3 9 -10 7 -31 c -2 -32 -1 -34 6 -12 c 7 20 9 15 10 -28 c 1 -38 -2 -51 -10 -46 c -9 5 -10 -1 -5 -20 c 4 -16 2 -26 -4 -26 c -6 0 -9 -4 -6 -9 c 9 -13 -4 -42 -16 -35 c -5 3 -8 0 -6 -8 c 2 -8 -11 -27 -28 -43 c -16 -17 -21 -23 -10 -15 c 21 15 21 15 3 -7 c -11 -12 -25 -19 -32 -17 c -7 3 -16 0 -21 -7 c -5 -8 -3 -10 6 -4 c 8 5 11 4 6 -3 c -4 -6 -14 -8 -23 -5 c -11 4 -14 3 -9 -5 c 5 -8 1 -10 -10 -5 c -13 5 -15 3 -9 -7 c 5 -8 4 -11 -2 -7 c -6 4 -26 4 -44 0 c -28 -5 -30 -7 -14 -14 c 12 -5 -2 -7 -37 -6 c -32 1 -58 6 -58 11 c 0 4 -11 5 -25 2 c -15 -4 -25 -2 -25 4 c 0 6 -4 8 -10 5 c -5 -3 -10 -1 -10 5 c 0 6 -4 8 -10 5 c -5 -3 -10 -1 -10 6 c 0 7 -3 10 -6 7 c -3 -4 -22 10 -41 30 c -20 21 -28 26 -17 12 l 19 -25 l -22 18 c -12 11 -19 25 -17 32 c 3 7 0 16 -7 21 c -8 5 -10 3 -4 -6 c 5 -8 4 -11 -3 -6 c -6 4 -8 14 -5 23 c 4 11 3 14 -5 9 c -8 -5 -10 -1 -5 10 c 4 11 3 15 -4 11 c -7 -5 -9 1 -5 15 c 3 12 1 19 -5 15 c -5 -3 -8 7 -6 26 c 3 26 1 28 -6 12 c -7 -15 -9 -7 -9 32 c 0 33 4 50 11 46 c 6 -4 8 4 3 21 c -4 16 -2 26 4 26 c 6 0 8 4 5 10 c -8 14 22 68 45 80 c 11 6 19 16 17 22 c -1 7 4 13 11 14 c 6 1 17 2 23 3 c 5 0 7 6 4 11 c -4 6 -3 10 2 9 c 18 -3 34 1 30 9 c -3 4 5 8 16 9 c 12 1 45 5 72 9 c 43 6 46 9 25 15 c -21 6 -20 7 13 8 c 26 1 36 -3 31 -10 z" stroke-linecap="round" />
</g>
<g transform="matrix(0.07 0 0 -0.07 176.54 155.69)"  >
<radialGradient id="SVGID_2558" gradientUnits="userSpaceOnUse" gradientTransform="matrix(1 0 0 1 920 5804)"  cx="1464.972930258975" cy="966" r="1464.972930258975" fx="1464.972930258975" fy="966">
<stop offset="0%" style="stop-color:rgba(224, 136, 136, 1);"/>
<stop offset="100%" style="stop-color:rgba(255, 0, 0, 1);"/>
</radialGradient>
<path style="stroke: none; stroke-width: 1; stroke-dasharray: none; stroke-linecap: butt; stroke-dashoffset: 0; stroke-linejoin: miter; stroke-miterlimit: 4; fill: url(#SVGID_2558); fill-rule: nonzero; opacity: 1;"  transform=" translate(-2384.97, -6770)" d="M 1772 7728 c 7 -5 -6 -5 -31 -2 c -32 5 -42 4 -37 -4 c 5 -8 -3 -10 -26 -6 c -26 5 -30 3 -18 -6 c 12 -9 11 -10 -8 -5 c -26 8 -125 -23 -117 -36 c 4 -5 0 -6 -8 -3 c -14 5 -117 -40 -117 -52 c 0 -3 5 -2 12 2 c 7 4 8 3 4 -5 c -4 -6 -12 -9 -17 -5 c -16 9 -113 -60 -188 -134 c -57 -57 -58 -59 -11 -17 c 31 28 20 14 -24 -30 c -45 -44 -74 -75 -65 -70 c 8 6 3 -1 -11 -14 c -14 -13 -18 -20 -10 -16 c 8 4 4 -3 -10 -15 c -14 -12 -18 -19 -10 -15 c 8 4 4 -3 -10 -15 c -14 -12 -19 -19 -12 -15 c 11 6 12 3 3 -14 c -7 -11 -16 -21 -22 -21 c -6 0 -7 -4 -4 -10 c 3 -5 1 -10 -5 -10 c -6 0 -8 -4 -5 -10 c 3 -5 1 -10 -5 -10 c -6 0 -8 -4 -5 -10 c 3 -5 2 -10 -4 -10 c -6 0 -7 -7 -4 -17 c 5 -12 3 -14 -7 -8 c -10 6 -12 4 -7 -8 c 3 -10 2 -17 -3 -17 c -5 0 -7 -7 -4 -15 c 4 -8 1 -15 -5 -15 c -6 0 -8 -7 -5 -15 c 4 -8 2 -15 -4 -15 c -6 0 -8 -10 -4 -22 c 4 -15 2 -19 -7 -13 c -10 5 -11 2 -6 -14 c 4 -13 2 -21 -5 -21 c -8 0 -9 -10 -5 -31 c 5 -22 4 -29 -4 -25 c -8 5 -10 -5 -5 -36 c 4 -32 3 -39 -5 -28 c -8 11 -11 -16 -11 -100 c 0 -78 3 -110 10 -100 c 7 10 8 -1 4 -35 c -4 -39 -3 -47 6 -35 c 9 12 10 11 5 -8 c -8 -28 3 -84 16 -77 c 5 4 6 -1 3 -9 c -8 -20 15 -88 27 -81 c 5 4 6 0 3 -8 c -7 -19 41 -116 70 -140 c 11 -10 14 -15 6 -11 c -23 12 15 -44 54 -81 c 18 -16 25 -25 16 -20 c -9 6 4 -9 29 -32 c 25 -23 63 -61 84 -85 c 21 -24 36 -36 32 -28 c -4 8 6 2 20 -15 c 15 -16 24 -23 20 -15 c -3 8 3 4 14 -9 c 12 -13 21 -20 21 -15 c 0 4 7 -1 16 -12 c 8 -10 13 -12 9 -4 c -4 8 1 6 9 -4 c 9 -11 16 -16 16 -11 c 0 5 7 0 16 -11 c 8 -10 13 -13 9 -6 c -5 10 -1 10 19 1 c 14 -7 23 -17 19 -22 c -4 -6 0 -8 10 -4 c 10 3 17 2 17 -4 c 0 -6 5 -7 10 -4 c 6 3 10 2 10 -4 c 0 -6 7 -7 17 -4 c 11 5 14 3 8 -6 c -6 -10 -2 -11 15 -6 c 17 5 21 4 15 -6 c -6 -9 -3 -11 8 -6 c 10 3 17 2 17 -4 c 0 -6 9 -8 21 -4 c 16 5 19 4 14 -5 c -6 -10 -1 -11 19 -6 c 20 5 26 3 21 -5 c -6 -8 2 -9 25 -4 c 24 5 31 4 25 -5 c -5 -9 5 -10 41 -5 c 29 4 44 3 37 -2 c -7 -5 107 -9 265 -9 c 152 0 261 4 242 8 c -20 4 2 5 50 3 c 57 -3 78 -1 65 5 c -14 6 -1 8 40 4 c 43 -3 54 -2 40 5 c -14 7 -3 8 40 5 c 46 -4 57 -3 45 6 c -12 9 -5 10 29 4 c 29 -4 41 -3 37 4 c -4 7 6 9 31 6 c 28 -4 34 -3 23 5 c -11 8 -5 9 25 5 c 30 -4 36 -3 25 5 c -11 8 -5 9 25 5 c 30 -4 36 -3 25 5 c -11 8 -5 9 25 5 c 30 -4 36 -3 25 5 c -11 8 -7 9 19 4 c 27 -5 32 -3 26 7 c -5 9 -4 11 4 6 c 17 -11 112 14 104 27 c -3 6 -1 7 6 3 c 15 -10 113 13 106 24 c -3 5 5 6 17 2 c 13 -3 19 -1 15 5 c -5 7 1 9 15 5 c 16 -4 19 -2 13 8 c -5 9 -4 11 4 6 c 14 -9 113 23 106 34 c -3 4 5 6 17 2 c 13 -3 19 -1 15 5 c -5 7 1 9 15 5 c 16 -4 19 -2 13 8 c -5 9 -4 11 4 6 c 16 -10 53 3 45 16 c -4 7 -2 8 5 4 c 15 -9 53 3 46 15 c -3 5 2 6 11 2 c 12 -4 15 -3 10 5 c -5 8 -1 10 10 5 c 13 -5 15 -3 9 7 c -5 9 -4 11 4 6 c 15 -10 73 13 65 25 c -3 5 1 6 9 3 c 14 -5 157 60 157 72 c 0 3 -5 2 -12 -2 c -7 -4 -8 -3 -4 4 c 4 6 13 9 21 6 c 7 -3 29 9 47 28 c 20 19 23 25 8 13 c -18 -14 -16 -10 6 12 c 18 17 30 34 26 37 c -3 3 0 6 7 6 c 8 0 10 7 6 21 c -5 15 -4 19 4 15 c 16 -10 14 67 -3 107 c -7 18 -28 46 -46 62 c -18 17 -30 23 -26 15 c 5 -9 2 -8 -7 2 c -8 10 -17 15 -20 11 c -4 -3 -7 -1 -7 6 c 0 8 -7 10 -20 6 c -12 -4 -20 -2 -20 5 c 0 8 -9 10 -25 6 c -16 -4 -25 -2 -25 5 c 0 7 -9 9 -25 5 c -15 -4 -25 -2 -25 5 c 0 7 -11 8 -31 4 c -24 -5 -30 -4 -24 5 c 6 10 1 11 -19 6 c -15 -4 -26 -2 -26 3 c 0 6 -7 7 -17 4 c -12 -5 -14 -3 -8 7 c 6 10 4 12 -8 7 c -10 -4 -17 -2 -17 4 c 0 6 -7 9 -15 5 c -8 -3 -15 -1 -15 4 c 0 5 -7 7 -15 4 c -8 -4 -15 -1 -15 5 c 0 6 -7 8 -17 4 c -12 -5 -14 -3 -8 7 c 6 10 4 12 -8 7 c -10 -3 -17 -2 -17 4 c 0 6 -4 7 -10 4 c -5 -3 -10 -1 -10 5 c 0 6 -4 8 -10 5 c -6 -3 -10 -1 -10 5 c 0 6 -4 8 -10 5 c -5 -3 -10 -1 -10 5 c 0 6 -4 9 -10 5 c -5 -3 -18 3 -29 14 c -11 11 -22 17 -25 13 c -3 -3 -6 0 -6 7 c 0 7 -4 9 -10 6 c -5 -3 -10 -1 -10 4 c 0 6 -4 10 -9 9 c -4 -2 -17 6 -27 17 c -11 12 -17 16 -14 10 c 3 -6 -6 1 -20 15 c -14 14 -21 19 -16 10 c 4 -8 -9 3 -29 25 c -21 22 -32 31 -24 21 c 8 -11 -27 20 -78 69 c -50 48 -89 93 -86 100 c 2 7 -13 30 -34 51 c -21 21 -32 34 -25 30 c 8 -4 3 8 -9 27 c -13 19 -28 33 -33 30 c -5 -4 -6 -1 -2 5 c 6 11 -38 112 -50 112 c -3 0 -2 -5 2 -12 c 4 -7 3 -8 -5 -4 c -6 4 -8 12 -5 18 c 4 6 -4 20 -17 30 c -13 11 -18 16 -10 12 c 28 -15 -50 83 -122 152 c -39 38 -63 57 -52 43 c 11 -14 2 -7 -19 15 c -22 23 -35 34 -30 26 c 5 -9 -2 -4 -15 10 c -13 14 -20 18 -16 10 c 4 -8 -3 -4 -15 10 c -12 14 -19 18 -15 10 c 4 -10 2 -9 -8 2 c -8 10 -17 15 -20 11 c -4 -3 -7 0 -7 7 c 0 7 -3 10 -7 7 c -3 -4 -12 1 -20 11 c -8 9 -12 11 -8 5 c 4 -9 1 -11 -9 -7 c -9 3 -13 10 -10 15 c 3 5 -2 6 -10 3 c -9 -3 -16 -1 -16 6 c 0 6 -4 8 -10 5 c -5 -3 -10 -1 -10 5 c 0 6 -4 8 -10 5 c -5 -3 -10 -1 -10 5 c 0 7 -7 10 -15 6 c -8 -3 -15 -1 -15 4 c 0 5 -7 7 -15 4 c -8 -4 -15 -1 -15 5 c 0 6 -7 8 -15 5 c -8 -4 -15 -1 -15 6 c 0 7 -8 9 -20 5 c -12 -4 -20 -2 -20 5 c 0 6 -10 8 -26 4 c -20 -5 -25 -4 -20 5 c 6 9 -1 11 -29 5 c -22 -4 -36 -3 -32 2 c 3 5 -52 9 -124 10 c -73 0 -124 -3 -117 -8 z m 190 -692 c -3 -5 2 -6 12 -3 c 23 9 53 -8 96 -53 c 23 -24 27 -26 10 -6 l -25 31 l 32 -29 c 17 -15 29 -34 27 -41 c -3 -7 0 -16 7 -21 c 8 -5 10 -3 4 6 c -5 8 -4 11 3 6 c 6 -4 8 -14 5 -23 c -5 -12 -3 -14 7 -8 c 9 5 11 4 6 -4 c -4 -6 -3 -26 3 -44 c 14 -46 20 -147 8 -140 c -6 4 -8 -3 -5 -15 c 4 -12 2 -22 -4 -22 c -5 0 -6 -4 -3 -10 c 3 -5 1 -10 -6 -10 c -7 0 -9 -3 -6 -7 c 4 -3 -1 -12 -11 -20 c -11 -9 -12 -12 -2 -7 c 8 3 -1 -8 -20 -26 c -19 -18 -26 -26 -15 -19 c 18 13 19 12 7 -3 c -8 -9 -19 -15 -27 -12 c -7 3 -16 0 -21 -7 c -5 -8 -3 -10 6 -4 c 9 5 11 4 6 -4 c -4 -6 -11 -9 -15 -7 c -4 3 -30 -3 -56 -13 c -26 -10 -43 -20 -37 -22 c 7 -2 -17 -4 -52 -4 c -36 0 -62 4 -58 9 c 3 5 -5 6 -18 3 c -32 -8 -94 26 -123 68 c -13 19 -27 32 -31 27 c -4 -4 -7 -2 -6 3 c 5 21 0 36 -10 30 c -6 -4 -7 1 -3 11 c 5 13 3 15 -7 9 c -8 -5 -11 -4 -6 3 c 4 6 4 23 0 37 c -4 15 -10 22 -13 17 c -4 -6 -6 18 -6 53 c 0 35 4 61 9 58 c 5 -3 7 6 4 21 c -3 14 -1 26 4 26 c 5 0 6 5 3 10 c -3 6 -1 10 5 10 c 6 0 8 5 5 10 c -3 6 -1 10 5 10 c 6 0 9 4 5 9 c -3 6 4 15 15 21 c 11 6 19 16 17 22 c -1 7 3 13 8 13 c 23 3 44 18 39 26 c -3 5 -2 9 3 8 c 21 -4 34 2 27 13 c -4 7 -3 8 4 4 c 6 -4 23 -4 37 0 c 15 4 22 9 17 13 c -6 3 25 6 68 6 c 45 0 76 -4 72 -9 z" stroke-linecap="round" />
</g>
<g transform="matrix(0.07 0 0 -0.07 321.08 321.38)"  >
<radialGradient id="SVGID_2557" gradientUnits="userSpaceOnUse" gradientTransform="matrix(1 0 0 1 2913.81 2900.85)"  cx="1516.5958008537086" cy="1524.576031259048" r="1516.5958008537086" fx="1516.5958008537086" fy="1524.576031259048">
<stop offset="0%" style="stop-color:rgba(224, 136, 136, 1);"/>
<stop offset="100%" style="stop-color:rgba(255, 0, 0, 1);"/>
</radialGradient>
<path style="stroke: none; stroke-width: 1; stroke-dasharray: none; stroke-linecap: butt; stroke-dashoffset: 0; stroke-linejoin: miter; stroke-miterlimit: 4; fill: url(#SVGID_2557); fill-rule: nonzero; opacity: 1;"  transform=" translate(-4430.4, -4425.42)" d="M 4380 5940 c 10 -6 -3 -8 -40 -4 c -40 4 -51 3 -40 -5 c 11 -8 0 -9 -40 -6 c -40 4 -50 3 -35 -4 c 15 -8 5 -9 -35 -5 c -40 4 -51 3 -40 -5 c 11 -8 0 -9 -40 -6 c -42 4 -50 3 -35 -5 c 16 -8 12 -9 -18 -4 c -29 4 -37 2 -31 -7 c 4 -8 3 -10 -5 -5 c -16 10 -53 -3 -45 -16 c 4 -7 2 -8 -5 -4 c -15 9 -53 -3 -46 -15 c 3 -5 -2 -6 -11 -2 c -13 5 -15 3 -9 -7 c 5 -9 4 -11 -4 -6 c -16 10 -53 -3 -45 -16 c 5 -7 2 -8 -5 -4 c -16 10 -73 -13 -64 -27 c 3 -6 1 -7 -6 -3 c -15 9 -53 -3 -46 -15 c 3 -5 -1 -6 -9 -3 c -19 7 -55 -11 -86 -45 c -14 -15 -20 -20 -15 -12 c 15 23 -75 -47 -114 -88 c -19 -20 -28 -27 -20 -16 c 8 10 -23 -9 -68 -43 c -45 -34 -85 -68 -89 -75 c -4 -6 4 -3 17 8 c 14 11 7 2 -15 -19 c -23 -22 -34 -35 -26 -30 c 9 5 4 -2 -10 -16 c -14 -14 -21 -23 -15 -20 c 6 3 -3 -8 -20 -23 c -16 -16 -23 -26 -15 -22 c 8 4 1 -6 -15 -22 c -17 -15 -26 -26 -20 -23 c 6 3 -1 -6 -15 -20 c -14 -14 -21 -23 -15 -20 c 6 3 -3 -8 -20 -23 c -16 -16 -23 -26 -15 -22 c 8 3 2 -6 -15 -20 c -16 -15 -23 -24 -15 -20 c 12 5 12 4 -1 -7 c -9 -7 -14 -19 -11 -27 c 3 -8 0 -11 -7 -7 c -7 5 -9 1 -5 -8 c 3 -9 1 -16 -6 -16 c -6 0 -8 -4 -5 -10 c 3 -5 2 -10 -4 -10 c -6 0 -7 -7 -4 -17 c 5 -12 3 -14 -7 -8 c -10 6 -12 4 -7 -8 c 3 -10 2 -17 -3 -17 c -5 0 -6 -7 -3 -17 c 5 -12 3 -14 -7 -8 c -10 6 -12 4 -7 -8 c 3 -10 2 -17 -4 -17 c -6 0 -7 -4 -4 -10 c 3 -5 2 -10 -4 -10 c -6 0 -8 -7 -5 -15 c 4 -8 1 -15 -6 -15 c -6 0 -8 -4 -5 -10 c 3 -5 2 -10 -4 -10 c -6 0 -7 -7 -4 -17 c 5 -12 3 -14 -7 -8 c -10 6 -12 4 -7 -8 c 3 -10 2 -17 -3 -17 c -5 0 -6 -7 -3 -17 c 4 -11 3 -14 -5 -9 c -8 5 -10 2 -6 -8 c 3 -9 1 -16 -5 -16 c -6 0 -8 -7 -4 -17 c 5 -12 3 -14 -7 -8 c -10 6 -11 -2 -6 -41 c 5 -37 4 -45 -4 -34 c -9 11 -10 3 -5 -34 c 5 -36 4 -46 -6 -41 c -9 6 -10 -4 -5 -41 c 5 -37 4 -45 -4 -34 c -9 11 -10 3 -5 -34 c 4 -26 3 -46 -2 -43 c -4 3 -9 -41 -9 -96 c -1 -62 2 -94 7 -82 c 5 12 6 -2 3 -35 c -4 -40 -3 -51 5 -40 c 8 11 9 0 6 -40 c -4 -40 -3 -50 4 -35 c 8 15 9 5 5 -35 c -4 -41 -3 -51 5 -40 c 9 11 10 4 5 -29 c -6 -34 -4 -42 6 -36 c 9 5 10 2 6 -12 c -8 -25 3 -55 17 -46 c 6 4 7 1 3 -6 c -10 -16 13 -73 27 -64 c 6 3 7 1 3 -6 c -10 -16 3 -53 16 -45 c 7 4 8 2 4 -5 c -10 -16 3 -53 16 -45 c 7 4 8 2 4 -5 c -9 -15 3 -53 15 -46 c 5 3 6 -2 2 -11 c -5 -13 -3 -15 7 -9 c 9 5 11 4 6 -4 c -12 -20 14 -73 53 -110 c 20 -19 27 -28 16 -20 c -28 20 39 -67 84 -110 c 20 -19 27 -28 16 -20 c -30 21 42 -68 105 -131 c 30 -30 51 -48 45 -39 c -5 8 1 3 15 -11 c 14 -14 23 -21 20 -15 c -3 6 6 -1 20 -15 c 14 -14 23 -21 20 -15 c -3 6 8 -3 23 -20 c 16 -16 26 -23 22 -15 c -4 8 6 1 22 -15 c 15 -17 26 -26 23 -20 c -3 6 6 -1 20 -15 c 14 -14 23 -21 20 -15 c -3 6 8 -3 23 -20 c 16 -16 26 -23 22 -15 c -4 10 -2 9 8 -2 c 8 -10 17 -15 20 -11 c 4 3 7 1 7 -5 c 0 -6 7 -9 17 -5 c 12 5 14 3 8 -7 c -6 -10 -4 -12 8 -7 c 10 3 17 2 17 -3 c 0 -5 7 -6 17 -3 c 12 5 14 3 8 -7 c -6 -10 -4 -12 8 -7 c 10 3 17 2 17 -4 c 0 -6 5 -7 10 -4 c 6 3 10 2 10 -4 c 0 -6 7 -7 17 -4 c 12 5 14 3 8 -7 c -6 -10 -4 -12 8 -7 c 10 3 17 2 17 -3 c 0 -5 7 -6 17 -3 c 12 5 14 3 8 -7 c -6 -10 -4 -12 8 -7 c 10 3 17 2 17 -4 c 0 -6 5 -7 10 -4 c 6 3 10 2 10 -4 c 0 -6 7 -8 15 -5 c 8 4 15 1 15 -6 c 0 -6 5 -8 10 -5 c 6 3 10 2 10 -4 c 0 -6 7 -7 17 -4 c 12 5 14 3 8 -7 c -6 -10 -4 -12 8 -7 c 10 3 17 2 17 -4 c 0 -6 15 -7 38 -4 c 29 5 34 4 22 -5 c -12 -9 -4 -10 34 -5 c 36 5 46 4 41 -6 c -6 -9 4 -10 40 -5 c 36 6 45 5 40 -5 c -6 -9 4 -10 41 -5 c 37 5 45 4 34 -4 c -11 -9 -3 -10 34 -5 c 33 5 46 3 41 -4 c -4 -7 10 -11 42 -10 c 37 0 43 2 28 9 c -13 6 -1 7 35 4 c 40 -4 51 -3 40 5 c -11 8 0 9 40 6 c 40 -4 49 -3 35 4 c -14 7 -3 9 40 5 c 44 -3 55 -2 40 5 c -14 8 -5 9 35 5 c 42 -4 52 -3 40 6 c -12 9 -8 10 18 5 c 37 -8 95 11 85 28 c -3 6 -1 7 6 3 c 16 -10 53 3 45 16 c -4 7 -2 8 5 4 c 15 -9 53 3 46 15 c -3 5 2 6 11 2 c 13 -5 15 -3 9 7 c -5 9 -4 11 4 6 c 16 -10 53 3 45 16 c -4 7 -2 8 5 4 c 16 -10 53 3 45 16 c -5 7 -2 8 5 4 c 15 -10 73 13 65 25 c -3 5 1 6 8 4 c 15 -6 109 60 148 103 c 14 15 21 21 15 13 c -15 -23 75 47 114 88 c 19 20 28 28 21 19 c -21 -30 -7 -20 35 24 c 22 23 33 38 25 34 c -8 -4 -1 5 15 21 c 17 15 26 26 20 23 c -6 -3 1 6 15 20 c 14 14 21 23 15 20 c -6 -3 3 8 20 23 c 16 16 23 26 15 22 c -8 -4 -1 6 15 22 c 17 15 26 26 20 23 c -6 -3 1 6 15 20 c 14 14 21 23 15 20 c -6 -3 1 6 15 20 c 14 14 21 23 15 20 c -6 -3 -3 2 7 11 c 9 9 14 19 11 23 c -4 3 -1 6 6 6 c 7 0 9 5 6 10 c -3 6 -2 10 4 10 c 6 0 7 7 4 17 c -5 12 -3 14 7 8 c 10 -6 12 -4 7 8 c -3 10 -2 17 4 17 c 6 0 7 5 4 10 c -3 6 -2 10 4 10 c 6 0 8 7 5 15 c -4 8 -1 15 6 15 c 6 0 8 5 5 10 c -3 6 -2 10 4 10 c 6 0 7 7 4 17 c -5 12 -3 14 7 8 c 10 -6 12 -4 7 8 c -3 10 -2 17 3 17 c 5 0 6 7 3 17 c -4 11 -3 14 5 9 c 8 -5 10 -2 6 8 c -3 9 -1 16 6 16 c 6 0 8 5 5 10 c -3 6 -2 10 4 10 c 6 0 7 7 4 17 c -5 12 -3 14 7 8 c 10 -6 12 -4 7 8 c -3 10 -2 17 3 17 c 5 0 6 7 3 17 c -4 11 -3 14 6 9 c 9 -6 10 0 6 21 c -5 22 -4 25 5 13 c 9 -12 10 -4 5 34 c -5 36 -4 46 6 41 c 9 -6 10 4 5 40 c -6 36 -5 45 5 40 c 9 -6 10 4 5 41 c -5 37 -4 45 4 34 c 9 -11 10 -3 5 34 c -4 27 -3 46 2 43 c 5 -3 10 30 10 75 c 0 47 -3 74 -8 66 c -5 -7 -6 10 -4 42 c 4 40 3 50 -4 35 c -8 -15 -9 -5 -5 35 c 4 40 3 51 -5 40 c -8 -11 -9 0 -5 40 c 4 42 3 51 -6 40 c -8 -12 -9 -6 -4 22 c 8 46 -2 92 -18 82 c -7 -4 -8 -3 -4 5 c 10 16 -3 53 -16 45 c -7 -4 -8 -2 -4 5 c 10 16 -3 53 -16 45 c -7 -5 -8 -2 -4 5 c 10 16 -13 73 -27 64 c -6 -3 -7 -1 -3 6 c 10 16 -3 53 -16 45 c -7 -5 -8 -2 -4 5 c 9 14 -13 73 -24 66 c -5 -3 -6 3 -4 12 c 6 23 -47 104 -106 163 c -25 25 -36 38 -25 30 c 33 -25 -75 111 -135 170 c -30 30 -50 48 -45 39 c 6 -8 -1 -3 -15 11 c -14 14 -23 21 -20 15 c 3 -6 -8 3 -23 20 c -16 16 -26 23 -22 15 c 4 -8 -6 -1 -22 15 c -15 17 -26 26 -23 20 c 3 -6 -6 1 -20 15 c -14 14 -23 21 -20 15 c 3 -6 -8 3 -23 20 c -16 16 -26 23 -22 15 c 4 -8 -5 0 -20 18 c -16 19 -33 31 -41 28 c -8 -3 -14 -1 -14 5 c 0 6 -4 7 -10 4 c -5 -3 -10 -2 -10 4 c 0 6 -7 8 -15 5 c -8 -4 -15 -1 -15 6 c 0 6 -4 8 -10 5 c -5 -3 -10 -2 -10 4 c 0 6 -7 7 -17 4 c -12 -5 -14 -3 -8 7 c 6 10 4 12 -8 7 c -10 -3 -17 -2 -17 3 c 0 5 -7 6 -17 3 c -11 -4 -14 -3 -9 5 c 5 8 2 10 -8 6 c -9 -3 -16 -1 -16 6 c 0 6 -4 8 -10 5 c -5 -3 -10 -2 -10 4 c 0 6 -7 7 -17 4 c -12 -5 -14 -3 -8 7 c 6 10 4 12 -8 7 c -10 -3 -17 -2 -17 3 c 0 5 -7 6 -17 3 c -12 -5 -14 -3 -8 7 c 6 10 4 12 -8 7 c -10 -3 -17 -2 -17 4 c 0 6 -4 7 -10 4 c -5 -3 -10 -2 -10 4 c 0 6 -7 8 -15 5 c -8 -4 -15 -1 -15 5 c 0 6 -12 8 -32 5 c -26 -5 -30 -3 -18 6 c 12 9 4 10 -34 5 c -36 -5 -46 -4 -41 6 c 6 9 -4 10 -41 5 c -37 -5 -45 -4 -34 4 c 11 9 3 10 -34 5 c -36 -5 -46 -4 -41 6 c 6 9 -4 10 -40 5 c -33 -5 -45 -4 -40 3 c 4 7 -13 11 -52 11 c -41 0 -54 -3 -43 -10 z m 70 -961 c -11 -8 -2 -9 34 -4 c 36 5 46 4 41 -6 c -6 -8 1 -10 24 -7 c 17 2 31 1 31 -3 c 0 -5 7 -5 17 -2 c 12 5 14 3 8 -7 c -6 -10 -4 -12 8 -7 c 10 3 17 2 17 -3 c 0 -5 7 -6 17 -3 c 12 5 14 3 8 -7 c -6 -10 -4 -12 8 -7 c 10 3 17 2 17 -4 c 0 -6 5 -7 10 -4 c 6 3 10 1 10 -4 c 0 -6 4 -10 9 -8 c 4 1 17 -7 27 -18 c 11 -12 17 -16 14 -10 c -3 6 6 -1 20 -15 c 14 -14 23 -21 20 -15 c -3 6 3 3 12 -8 c 9 -10 25 -26 35 -35 c 11 -9 12 -12 4 -7 c -8 6 -4 -5 9 -22 c 23 -32 39 -46 24 -21 c -4 7 -3 8 5 4 c 6 -4 9 -11 6 -15 c -2 -5 3 -17 11 -27 c 9 -10 12 -13 8 -5 c -4 9 -3 12 4 7 c 6 -4 8 -14 5 -23 c -4 -10 -2 -14 4 -10 c 7 5 9 -1 5 -15 c -3 -14 -1 -19 6 -14 c 8 5 10 1 5 -10 c -4 -11 -3 -15 4 -11 c 7 5 9 -1 5 -15 c -3 -14 -1 -19 6 -14 c 8 5 10 1 5 -10 c -4 -10 -2 -15 3 -11 c 6 4 9 -7 6 -26 c -2 -24 -1 -28 7 -17 c 8 11 9 0 6 -40 c -4 -37 -2 -48 4 -35 c 6 15 8 7 9 -32 c 0 -33 -4 -50 -11 -46 c -6 4 -7 -11 -3 -43 c 5 -37 4 -45 -4 -34 c -9 12 -10 8 -6 -18 c 4 -23 2 -31 -6 -26 c -8 5 -9 2 -5 -9 c 3 -10 2 -17 -4 -17 c -6 0 -7 -4 -4 -10 c 3 -5 2 -10 -4 -10 c -6 0 -8 -7 -5 -15 c 4 -8 1 -15 -6 -15 c -6 0 -8 -4 -5 -10 c 3 -5 1 -10 -5 -10 c -6 0 -8 -5 -4 -12 c 4 -6 -6 -22 -22 -37 c -17 -14 -25 -24 -19 -21 c 6 3 -3 -8 -20 -23 c -16 -16 -24 -26 -17 -22 c 20 10 14 0 -20 -31 c -18 -16 -26 -20 -18 -10 c 12 16 9 15 -17 -4 c -32 -23 -46 -39 -21 -24 c 7 4 8 3 4 -5 c -4 -6 -11 -9 -15 -6 c -5 2 -17 -3 -27 -11 c -10 -9 -13 -12 -5 -8 c 9 4 12 3 7 -4 c -4 -6 -14 -8 -23 -5 c -11 4 -14 3 -9 -5 c 5 -8 1 -10 -10 -5 c -13 5 -15 3 -9 -7 c 5 -9 4 -11 -4 -6 c -16 10 -53 -3 -45 -16 c 4 -7 2 -8 -5 -4 c -14 9 -53 -2 -46 -13 c 2 -5 -17 -7 -43 -5 c -26 3 -40 1 -30 -3 c 10 -5 -22 -8 -71 -8 c -50 0 -84 4 -78 8 c 7 5 -7 6 -30 3 c -28 -4 -43 -2 -43 4 c 0 6 -4 8 -10 5 c -5 -3 -10 -2 -10 4 c 0 6 -7 8 -15 5 c -8 -4 -15 -1 -15 6 c 0 6 -4 8 -10 5 c -5 -3 -10 -2 -10 4 c 0 6 -7 7 -17 4 c -12 -5 -14 -3 -8 7 c 5 8 3 11 -6 8 c -8 -3 -20 2 -27 11 c -11 13 -12 13 -7 1 c 4 -8 -3 -4 -16 10 c -13 14 -22 21 -19 15 c 3 -6 -8 3 -23 20 c -16 16 -26 23 -22 15 c 6 -14 -8 2 -41 45 c -8 11 -12 14 -8 6 c 5 -9 3 -12 -5 -7 c -6 4 -9 12 -5 17 c 3 6 -11 26 -33 46 c -21 20 -32 34 -26 29 c 9 -5 11 -2 7 8 c -3 9 -11 13 -17 9 c -6 -3 -7 -1 -3 6 c 9 15 -3 53 -15 46 c -5 -3 -6 2 -2 11 c 4 11 3 15 -4 11 c -7 -5 -9 1 -5 15 c 3 13 1 19 -5 15 c -6 -4 -9 4 -6 21 c 3 24 2 24 -7 7 c -7 -14 -8 -5 -4 35 c 3 30 2 50 -3 43 c -4 -6 -8 16 -9 52 c 0 39 3 62 9 58 c 6 -4 7 13 3 43 c -5 37 -4 45 4 34 c 10 -12 11 -11 7 8 c -3 12 -1 22 4 22 c 4 0 5 7 2 17 c -5 12 -3 14 7 8 c 10 -6 12 -4 7 8 c -3 10 -2 17 4 17 c 6 0 7 5 4 10 c -3 6 -2 10 4 10 c 6 0 8 7 5 15 c -4 8 -1 15 5 15 c 6 0 10 4 9 9 c -2 4 6 17 17 27 c 12 11 16 17 10 14 c -6 -3 1 6 15 20 c 14 14 21 23 15 20 c -6 -3 1 6 15 19 c 14 13 19 20 11 16 c -9 -6 -12 -4 -7 4 c 4 6 11 9 16 6 c 4 -3 16 3 27 13 c 10 9 12 13 3 7 c -13 -9 -13 -8 -2 7 c 8 9 20 14 27 12 c 7 -3 23 8 36 25 c 12 17 26 28 31 25 c 14 -9 49 7 42 18 c -4 7 -2 8 5 4 c 15 -9 53 3 46 15 c -3 5 2 6 11 2 c 10 -4 15 -2 11 3 c -3 5 12 8 36 7 c 33 -2 38 -1 22 7 c -14 6 -2 8 40 4 c 42 -3 54 -2 40 5 c -17 8 -15 10 15 10 c 27 1 32 -2 20 -10 z" stroke-linecap="round" />
</g>
<g transform="matrix(0.07 0 0 -0.07 538.76 318.65)"  >
<path style="stroke: none; stroke-width: 1; stroke-dasharray: none; stroke-linecap: butt; stroke-dashoffset: 0; stroke-linejoin: miter; stroke-miterlimit: 4; fill: rgb(0,0,0); fill-rule: nonzero; opacity: 1;"  transform=" translate(-7510.72, -4463.95)" d="M 7762 5518 c 7 -5 -6 -5 -31 -2 c -34 6 -42 4 -36 -6 c 5 -9 2 -10 -13 -6 c -27 9 -74 -3 -65 -17 c 3 -6 1 -7 -6 -3 c -16 10 -63 -2 -56 -14 c 3 -5 -1 -7 -9 -4 c -15 6 -146 -49 -146 -61 c 0 -3 5 -3 12 1 c 7 4 8 3 4 -5 c -4 -6 -12 -9 -17 -5 c -13 8 -56 -20 -94 -60 c -16 -18 -23 -23 -15 -12 c 8 12 -17 -11 -55 -50 c -39 -39 -52 -50 -30 -24 c 22 25 4 10 -39 -35 c -44 -44 -114 -114 -156 -155 c -42 -41 -62 -64 -45 -50 c 17 14 -1 -6 -40 -45 c -39 -38 -62 -63 -50 -55 c 12 8 3 -3 -19 -24 c -23 -22 -32 -34 -21 -26 c 11 7 2 -5 -20 -25 c -22 -21 -31 -32 -20 -25 c 11 7 2 -4 -20 -25 c -22 -20 -33 -33 -25 -29 c 9 5 4 -2 -10 -16 c -14 -14 -21 -23 -15 -20 c 6 3 -1 -6 -15 -19 c -14 -13 -18 -20 -10 -16 c 8 4 4 -3 -10 -15 c -14 -12 -18 -19 -10 -15 c 8 4 4 -3 -9 -14 c -13 -12 -19 -21 -15 -21 c 5 0 -2 -10 -16 -21 c -14 -11 -18 -18 -10 -14 c 8 4 4 -3 -10 -15 c -14 -12 -18 -19 -10 -15 c 8 4 4 -3 -10 -15 c -14 -12 -18 -19 -10 -15 c 8 4 4 -3 -10 -15 c -14 -12 -18 -19 -10 -15 c 8 4 6 -1 -4 -9 c -11 -9 -16 -16 -11 -16 c 5 0 0 -7 -11 -16 c -10 -8 -13 -12 -6 -9 c 11 6 12 3 3 -14 c -7 -11 -17 -21 -23 -21 c -6 0 -8 -3 -5 -7 c 4 -3 -1 -12 -11 -20 c -9 -8 -11 -11 -4 -8 c 11 6 12 3 3 -14 c -7 -11 -17 -21 -23 -21 c -6 0 -8 -3 -5 -7 c 4 -3 -1 -12 -11 -20 c -9 -8 -11 -11 -4 -8 c 11 6 12 3 3 -14 c -7 -11 -16 -21 -22 -21 c -6 0 -7 -4 -4 -10 c 3 -5 1 -10 -5 -10 c -6 0 -8 -4 -5 -10 c 3 -5 1 -10 -5 -10 c -6 0 -8 -4 -5 -10 c 3 -5 1 -10 -5 -10 c -6 0 -8 -4 -5 -10 c 3 -5 1 -10 -5 -10 c -6 0 -8 -4 -5 -10 c 3 -5 1 -10 -5 -10 c -6 0 -8 -4 -5 -10 c 3 -5 1 -10 -5 -10 c -6 0 -8 -4 -5 -10 c 3 -5 1 -10 -5 -10 c -6 0 -9 -4 -6 -9 c 8 -13 -4 -42 -15 -35 c -5 3 -6 -2 -3 -10 c 3 -9 1 -16 -6 -16 c -6 0 -8 -4 -5 -10 c 3 -5 1 -10 -5 -10 c -6 0 -8 -4 -5 -10 c 3 -5 1 -10 -5 -10 c -6 0 -8 -4 -5 -10 c 3 -5 2 -10 -4 -10 c -6 0 -8 -7 -5 -15 c 4 -8 1 -15 -6 -15 c -6 0 -8 -4 -5 -10 c 3 -5 2 -10 -4 -10 c -6 0 -8 -7 -5 -15 c 4 -8 1 -15 -6 -15 c -6 0 -8 -4 -5 -10 c 3 -5 1 -10 -5 -10 c -7 0 -10 -7 -6 -15 c 3 -8 1 -15 -4 -15 c -5 0 -6 -7 -3 -17 c 5 -12 3 -14 -7 -8 c -10 6 -12 4 -7 -8 c 3 -10 2 -17 -3 -17 c -5 0 -6 -7 -3 -17 c 5 -12 3 -14 -7 -8 c -10 6 -12 4 -7 -8 c 4 -10 2 -17 -4 -17 c -6 0 -9 -7 -5 -15 c 3 -8 1 -15 -5 -15 c -6 0 -8 -9 -4 -21 c 5 -16 4 -19 -5 -14 c -9 5 -10 1 -5 -15 c 5 -16 4 -20 -5 -15 c -9 5 -10 2 -5 -14 c 3 -11 3 -21 -2 -21 c -12 0 -9 -122 4 -145 c 6 -11 24 -31 40 -45 l 28 -25 l -25 30 c -25 31 -25 31 7 -1 c 17 -18 34 -30 37 -26 c 3 3 6 0 6 -6 c 0 -6 7 -9 15 -6 c 8 4 15 2 15 -4 c 0 -16 91 -12 125 5 c 35 19 175 111 190 126 c 7 7 5 7 -4 2 c -9 -5 -12 -4 -7 3 c 4 6 14 8 23 5 c 12 -5 14 -3 8 7 c -6 9 -4 11 4 5 c 15 -9 113 34 105 46 c -3 5 3 6 12 2 c 11 -4 15 -3 11 4 c -5 7 1 9 15 5 c 16 -4 19 -2 13 8 c -5 9 -4 11 4 6 c 17 -11 73 3 65 16 c -4 7 -2 8 5 4 c 14 -9 73 3 67 13 c -3 4 9 6 27 4 c 27 -3 29 -2 12 7 c -14 7 -5 8 35 4 c 41 -4 51 -3 40 5 c -11 9 -1 10 40 5 c 40 -4 51 -3 40 5 c -11 8 6 10 65 9 c 76 -1 77 -2 30 -9 c -38 -5 -26 -7 52 -5 c 57 1 99 -2 96 -7 c -3 -5 9 -6 27 -2 c 24 5 31 4 25 -5 c -6 -9 1 -10 25 -5 c 25 5 31 4 25 -5 c -6 -10 0 -12 24 -7 c 22 5 30 3 25 -4 c -4 -8 1 -9 16 -4 c 17 5 21 4 15 -6 c -6 -9 -3 -11 8 -6 c 10 3 17 2 17 -4 c 0 -6 9 -8 21 -4 c 16 5 19 4 14 -5 c -6 -10 -1 -11 19 -6 c 20 5 26 3 21 -5 c -6 -8 2 -9 25 -4 c 24 5 31 4 25 -5 c -5 -9 5 -10 41 -5 c 36 5 45 4 34 -4 c -11 -8 15 -11 95 -10 c 73 0 103 3 90 9 c -13 6 -1 7 35 4 c 43 -4 52 -3 40 6 c -12 9 -11 10 8 5 c 28 -8 124 13 116 26 c -3 5 2 6 10 3 c 20 -7 117 36 109 49 c -4 6 -1 7 6 2 c 16 -9 62 15 54 28 c -4 6 -1 7 6 3 c 19 -12 80 34 196 150 c 59 60 101 104 93 99 c -8 -6 -5 -2 7 9 c 11 10 20 22 20 27 c 0 6 7 14 15 19 c 8 5 11 10 6 10 c -6 0 -1 7 10 16 c 10 8 12 13 4 9 c -10 -4 -9 -2 2 8 c 10 8 15 17 11 20 c -3 4 -1 7 6 7 c 7 0 9 5 6 10 c -3 6 -1 10 5 10 c 6 0 8 5 5 10 c -3 6 -1 10 5 10 c 6 0 8 5 5 10 c -3 6 -1 10 5 10 c 6 0 8 5 5 10 c -3 6 -2 10 4 10 c 6 0 7 7 4 17 c -5 12 -3 14 7 8 c 10 -6 12 -4 7 8 c -4 10 -2 17 4 17 c 6 0 9 7 5 15 c -3 8 -1 15 3 15 c 5 0 7 10 3 22 c -4 15 -2 19 7 13 c 10 -5 11 -2 6 14 c -4 13 -2 21 5 21 c 6 0 8 10 4 26 c -5 21 -4 25 6 19 c 10 -6 11 0 6 30 c -4 20 -4 35 1 32 c 4 -3 8 55 9 129 c 0 74 -3 129 -8 122 c -5 -7 -6 7 -2 32 c 4 35 3 42 -6 30 c -9 -12 -10 -11 -5 9 c 8 26 -13 113 -25 106 c -5 -3 -6 5 -2 17 c 4 16 2 19 -8 13 c -9 -5 -11 -4 -6 4 c 10 16 -3 53 -16 45 c -7 -4 -8 -2 -4 5 c 10 15 -57 139 -93 171 c -15 14 -20 21 -11 16 c 8 -5 -1 6 -21 25 c -19 19 -27 28 -17 20 c 38 -30 15 -2 -59 69 c -43 41 -69 63 -58 49 c 11 -14 2 -7 -19 15 c -22 23 -35 34 -30 26 c 5 -9 -2 -4 -15 10 c -13 14 -20 18 -16 10 c 4 -8 -3 -4 -15 10 c -12 14 -19 18 -15 10 c 4 -10 2 -9 -8 2 c -8 10 -17 15 -20 11 c -4 -3 -7 -1 -7 5 c 0 7 -3 11 -7 11 c -20 -3 -34 2 -28 11 c 4 6 -1 7 -11 3 c -12 -4 -15 -3 -10 5 c 5 8 2 10 -8 6 c -9 -3 -16 -1 -16 6 c 0 6 -4 8 -10 5 c -5 -3 -10 -1 -10 5 c 0 6 -4 8 -10 5 c -5 -3 -10 -1 -10 5 c 0 7 -7 10 -15 6 c -8 -3 -15 -1 -15 4 c 0 5 -7 7 -15 4 c -8 -4 -15 -1 -15 5 c 0 6 -7 8 -15 5 c -8 -4 -15 -1 -15 6 c 0 7 -8 9 -20 5 c -12 -4 -20 -2 -20 5 c 0 6 -10 8 -26 4 c -19 -5 -25 -4 -20 5 c 6 8 -4 10 -36 5 c -24 -3 -38 -2 -31 3 c 6 4 -47 8 -118 9 c -73 0 -124 -3 -117 -8 z m 191 -692 c -4 -5 1 -7 11 -3 c 23 9 84 -24 121 -65 l 30 -33 l -36 30 c -19 17 -15 10 10 -14 c 25 -25 40 -41 34 -37 c -9 5 -11 2 -7 -8 c 3 -9 10 -13 15 -10 c 5 3 6 -3 2 -12 c -4 -11 -3 -15 4 -11 c 7 5 9 -1 5 -15 c -3 -11 -1 -19 4 -16 c 5 4 9 -28 9 -72 c 0 -45 -4 -76 -9 -72 c -5 3 -7 -2 -3 -11 c 3 -10 2 -17 -4 -17 c -6 0 -7 -4 -4 -10 c 3 -5 1 -10 -5 -10 c -6 0 -8 -4 -5 -10 c 3 -5 1 -10 -6 -10 c -7 0 -10 -3 -6 -6 c 3 -4 -4 -15 -16 -25 c -12 -10 -18 -18 -13 -19 c 5 0 3 -7 -4 -15 c -7 -8 -17 -12 -23 -8 c -6 3 -21 -7 -34 -23 c -12 -16 -23 -24 -23 -17 c 0 9 -8 9 -30 2 c -16 -6 -28 -14 -26 -17 c 2 -4 -24 -7 -59 -7 c -35 0 -61 4 -57 9 c 3 5 -5 6 -18 3 c -30 -8 -86 22 -130 69 c -19 21 -28 34 -20 30 c 8 -4 4 2 -10 14 c -14 12 -19 19 -13 15 c 9 -4 11 -1 7 9 c -3 9 -10 14 -14 11 c -5 -3 -6 5 -2 17 c 3 13 1 19 -5 15 c -7 -5 -9 1 -5 15 c 3 12 1 19 -4 15 c -5 -3 -9 20 -9 53 c 0 33 4 56 9 53 c 5 -4 6 5 2 21 c -4 16 -2 26 4 26 c 6 0 8 5 5 10 c -3 6 -1 10 6 10 c 7 0 9 3 6 7 c -4 3 1 12 11 20 c 11 10 12 12 2 8 c -8 -4 -2 5 15 19 c 16 14 38 35 48 48 c 10 13 16 17 12 10 c -6 -11 -3 -11 13 -1 c 12 7 19 16 16 20 c -2 4 6 5 18 1 c 13 -3 19 -1 15 5 c -5 7 1 9 15 5 c 11 -3 19 -1 16 4 c -4 5 26 9 67 9 c 43 0 71 -4 68 -9 z" stroke-linecap="round" />
</g>
<g transform="matrix(0.07 0 0 -0.07 103.58 324.3)"  >
<path style="stroke: none; stroke-width: 1; stroke-dasharray: none; stroke-linecap: butt; stroke-dashoffset: 0; stroke-linejoin: miter; stroke-miterlimit: 4; fill: rgb(0,0,0); fill-rule: nonzero; opacity: 1;"  transform=" translate(-1352.5, -4384.07)" d="M 2347 5388 c -80 -53 -140 -97 -98 -73 c 10 5 12 4 7 -4 c -4 -6 -11 -9 -16 -6 c -13 8 -80 -27 -73 -38 c 3 -6 1 -7 -6 -3 c -15 9 -53 -3 -46 -15 c 3 -5 -2 -6 -11 -2 c -12 4 -15 3 -10 -5 c 5 -8 1 -10 -10 -5 c -11 4 -15 3 -11 -4 c 5 -7 -1 -9 -15 -5 c -16 4 -19 2 -13 -8 c 6 -9 4 -11 -4 -5 c -15 8 -103 -14 -96 -25 c 2 -4 -8 -5 -23 -3 c -21 4 -24 2 -12 -6 c 11 -8 5 -9 -25 -5 c -30 4 -36 3 -25 -5 c 11 -8 0 -9 -40 -5 c -30 3 -50 2 -43 -3 c 6 -4 -58 -8 -142 -8 c -84 0 -151 4 -148 9 c 3 4 -9 5 -27 1 c -25 -5 -31 -4 -25 5 c 6 10 -1 11 -30 6 c -28 -6 -35 -4 -29 5 c 5 9 0 10 -20 5 c -16 -4 -26 -2 -26 5 c 0 6 -7 9 -15 5 c -8 -3 -15 -1 -15 4 c 0 5 -7 7 -15 4 c -8 -4 -15 -2 -15 4 c 0 6 -10 8 -22 4 c -15 -4 -19 -2 -13 7 c 5 10 2 11 -14 6 c -13 -4 -21 -2 -21 5 c 0 6 -10 8 -26 4 c -20 -5 -25 -4 -19 6 c 6 9 -2 11 -36 6 c -30 -5 -39 -4 -30 3 c 10 6 -27 9 -115 9 c -81 0 -122 -4 -109 -9 c 13 -5 2 -6 -29 -2 c -38 4 -47 3 -41 -7 c 5 -9 2 -10 -14 -5 c -27 8 -164 -32 -156 -45 c 3 -5 0 -7 -8 -4 c -14 5 -137 -50 -137 -62 c 0 -3 5 -2 12 2 c 7 4 8 3 4 -4 c -4 -6 -13 -9 -21 -5 c -10 3 -30 -10 -52 -33 c -20 -22 -31 -30 -24 -19 c 8 11 -1 4 -20 -16 c -19 -19 -28 -27 -20 -17 c 29 38 3 15 -69 -59 c -41 -43 -66 -71 -54 -63 c 11 8 4 0 -15 -19 c -20 -19 -29 -31 -21 -27 c 8 4 6 -1 -5 -11 c -11 -10 -21 -25 -23 -33 c -2 -8 -13 -23 -25 -33 c -12 -10 -16 -16 -9 -12 c 11 6 12 3 3 -14 c -7 -11 -16 -21 -22 -21 c -6 0 -7 -4 -4 -10 c 3 -5 1 -10 -5 -10 c -6 0 -8 -4 -5 -10 c 3 -5 2 -10 -4 -10 c -6 0 -7 -7 -4 -17 c 5 -12 3 -14 -7 -8 c -10 6 -12 4 -7 -8 c 3 -10 2 -17 -3 -17 c -5 0 -6 -7 -3 -17 c 5 -11 3 -14 -6 -8 c -10 6 -11 2 -6 -15 c 5 -16 4 -20 -5 -15 c -9 5 -10 1 -5 -15 c 5 -16 4 -20 -5 -15 c -9 5 -10 2 -5 -14 c 4 -13 2 -21 -5 -21 c -6 0 -8 -10 -4 -26 c 5 -20 4 -25 -6 -19 c -9 6 -10 0 -5 -25 c 4 -18 3 -30 -1 -27 c -5 3 -9 -62 -9 -143 c 0 -81 3 -143 8 -137 c 4 7 5 -8 1 -33 c -4 -34 -3 -41 5 -30 c 8 11 9 7 4 -19 c -4 -23 -3 -32 5 -28 c 6 5 8 -1 4 -15 c -4 -16 -2 -19 8 -13 c 9 5 11 4 6 -4 c -10 -16 2 -63 14 -56 c 5 3 7 -1 4 -9 c -10 -26 86 -197 141 -251 c 27 -27 39 -41 25 -30 c -14 10 9 -15 50 -58 c 72 -75 103 -101 64 -54 c -10 13 -1 5 20 -17 c 22 -23 35 -34 30 -26 c -5 9 2 4 15 -10 c 13 -14 20 -18 16 -10 c -4 8 3 4 15 -10 c 12 -14 19 -18 15 -10 c -4 10 -2 9 8 -2 c 8 -10 17 -15 20 -11 c 4 3 7 1 7 -6 c 0 -7 5 -9 10 -6 c 6 3 10 1 10 -4 c 0 -6 3 -10 8 -10 c 21 4 32 -2 26 -13 c -5 -8 -2 -9 9 -5 c 10 3 17 2 17 -4 c 0 -6 4 -7 10 -4 c 5 3 10 2 10 -4 c 0 -6 7 -7 17 -4 c 11 5 14 3 8 -6 c -6 -10 -2 -11 15 -6 c 17 5 21 4 15 -6 c -6 -9 -3 -11 8 -6 c 10 3 17 2 17 -4 c 0 -6 9 -8 21 -4 c 16 5 19 4 14 -5 c -6 -10 -1 -11 19 -6 c 20 5 26 3 21 -5 c -6 -8 2 -9 25 -4 c 23 5 30 4 26 -4 c -5 -8 5 -10 36 -5 c 31 4 39 3 28 -5 c -11 -7 20 -10 110 -10 c 82 1 118 4 105 10 c -13 6 -3 7 30 3 c 36 -4 46 -3 35 5 c -11 8 -4 9 25 5 c 31 -4 37 -3 25 6 c -12 9 -11 10 7 5 c 31 -8 79 5 61 17 c -9 7 -7 8 8 3 c 25 -7 56 3 48 16 c -3 5 1 6 9 3 c 16 -6 92 30 177 84 c 30 19 102 83 160 141 c 58 59 76 76 40 39 c -35 -37 -62 -68 -60 -68 c 3 0 59 55 125 122 c 66 68 104 109 85 93 c -20 -17 1 6 45 50 c 45 44 67 69 50 55 c -17 -14 -6 -1 24 29 c 31 30 49 50 41 45 c -9 -5 -4 2 10 16 c 14 14 19 21 10 16 c -8 -4 3 9 25 29 c 22 21 31 32 20 25 c -11 -7 -2 4 20 25 c 22 20 33 33 25 29 c -9 -5 -4 2 10 15 c 14 13 18 20 10 16 c -8 -4 -4 3 10 15 c 14 12 18 19 10 15 c -8 -4 -4 3 9 14 c 13 12 19 21 15 21 c -5 0 2 10 16 21 c 14 11 18 18 10 14 c -8 -4 -4 3 10 15 c 14 12 18 19 10 15 c -8 -4 -4 3 10 15 c 14 12 18 19 10 15 c -8 -4 -4 3 10 15 c 14 12 18 19 10 15 c -13 -6 -13 -5 0 7 c 8 7 16 20 18 28 c 2 8 10 20 17 26 c 8 6 12 14 8 17 c -3 4 -1 7 6 7 c 7 0 10 4 6 10 c -3 5 3 18 15 30 c 11 11 17 20 13 20 c -4 0 2 7 13 16 c 10 8 13 12 6 9 c -11 -6 -12 -3 -3 14 c 7 11 17 21 23 21 c 6 0 8 3 5 7 c -4 3 1 12 11 20 c 9 8 11 12 5 8 c -9 -4 -11 -1 -7 9 c 3 9 10 13 15 10 c 5 -3 6 3 2 12 c -4 12 -3 15 5 10 c 8 -5 10 -2 6 8 c -3 9 -1 16 6 16 c 6 0 8 5 5 10 c -3 6 -1 10 5 10 c 6 0 8 5 5 10 c -3 6 -1 10 5 10 c 6 0 8 5 5 10 c -3 6 -1 10 5 10 c 6 0 8 5 5 10 c -3 6 -1 10 5 10 c 6 0 8 5 5 10 c -3 6 -1 10 5 10 c 6 0 8 5 5 10 c -3 6 -1 10 5 10 c 6 0 8 5 5 10 c -3 6 -1 10 5 10 c 6 0 8 5 5 10 c -3 6 -2 10 4 10 c 6 0 7 7 4 17 c -4 11 -3 14 5 9 c 8 -5 10 -2 6 8 c -3 9 -1 16 5 16 c 6 0 8 7 4 17 c -5 12 -3 14 7 8 c 10 -6 12 -4 7 8 c -3 10 -2 17 3 17 c 5 0 6 7 3 17 c -5 12 -3 14 7 8 c 10 -6 12 -4 7 8 c -3 10 -2 17 3 17 c 5 0 6 7 3 17 c -5 12 -3 14 7 8 c 10 -6 12 -4 7 8 c -3 10 -2 17 3 17 c 5 0 7 7 4 15 c -4 8 -1 15 6 15 c 6 0 8 5 5 10 c -3 6 -2 10 4 10 c 6 0 8 7 5 15 c -4 8 -1 15 5 15 c 6 0 8 7 5 15 c -4 8 -1 15 6 15 c 7 0 9 8 5 21 c -5 16 -4 19 5 14 c 9 -5 10 -1 5 15 c -5 16 -4 20 5 15 c 9 -5 10 -2 5 14 c -4 12 -2 21 4 21 c 6 0 11 21 11 51 c 0 27 -4 48 -9 45 c -5 -4 -7 3 -4 13 c 3 13 -6 31 -29 53 c -19 20 -25 23 -13 8 c 14 -18 10 -16 -12 6 c -17 18 -34 30 -37 26 c -3 -3 -6 0 -6 6 c 0 6 -7 9 -17 5 c -9 -4 -14 -2 -10 3 c 3 5 -20 10 -54 11 c -57 1 -64 -2 -152 -59 z m -1304 -832 c -3 -4 5 -5 17 -1 c 17 5 21 4 15 -6 c -6 -9 -3 -11 8 -6 c 10 4 17 1 17 -5 c 0 -6 3 -9 6 -5 c 3 3 16 -4 28 -17 c 17 -18 18 -18 6 -1 c -12 16 -9 15 13 -4 c 15 -14 27 -30 27 -37 c 0 -7 5 -16 12 -20 c 7 -5 8 -3 3 6 c -5 8 -4 11 3 6 c 6 -4 9 -13 6 -20 c -3 -8 0 -17 7 -22 c 8 -5 10 -3 4 6 c -5 9 -4 11 4 6 c 6 -4 9 -12 6 -17 c -8 -12 4 -51 14 -45 c 4 3 6 -9 4 -27 c -3 -26 -1 -28 6 -12 c 7 15 9 5 8 -37 c 0 -34 -4 -55 -10 -51 c -6 4 -7 -4 -3 -21 c 4 -16 2 -26 -4 -26 c -6 0 -8 -4 -5 -10 c 3 -5 1 -10 -5 -10 c -6 0 -8 -4 -5 -10 c 3 -5 1 -10 -6 -10 c -7 0 -10 -3 -6 -6 c 3 -3 -4 -16 -17 -28 c -12 -11 -14 -15 -4 -7 c 31 24 20 7 -19 -29 c -20 -19 -33 -29 -29 -22 c 7 11 4 11 -12 1 c -12 -7 -19 -17 -16 -21 c 3 -4 -3 -5 -12 -1 c -13 5 -15 3 -9 -7 c 5 -8 4 -11 -3 -6 c -6 4 -23 4 -37 0 c -15 -4 -22 -9 -17 -13 c 6 -3 -21 -6 -58 -6 c -38 0 -66 4 -63 9 c 4 5 -4 7 -15 4 c -12 -4 -22 -2 -22 4 c 0 5 -4 6 -10 3 c -5 -3 -10 -1 -10 5 c 0 6 -5 8 -10 5 c -6 -4 -27 11 -48 32 c -20 22 -26 25 -12 9 l 25 -31 l -32 29 c -18 16 -32 32 -31 35 c 2 20 -3 31 -12 26 c -6 -4 -10 -3 -9 2 c 4 22 -2 44 -10 39 c -5 -4 -7 4 -3 16 c 3 12 1 19 -4 15 c -5 -3 -8 13 -7 36 c 2 38 1 39 -6 12 c -8 -27 -9 -26 -10 18 c -1 33 3 46 10 41 c 8 -4 9 3 4 26 c -6 25 -4 31 6 25 c 9 -6 11 -3 6 8 c -3 10 -2 17 4 17 c 6 0 7 5 4 10 c -3 6 -1 10 6 10 c 7 0 10 3 7 6 c -3 3 11 22 31 42 l 37 37 l -36 -30 l -35 -30 l 34 37 c 18 20 39 34 46 32 c 7 -3 16 0 21 7 c 5 8 3 10 -6 4 c -8 -5 -11 -4 -6 3 c 4 6 14 8 23 5 c 12 -5 14 -3 8 7 c -5 8 -4 11 3 6 c 6 -4 23 -4 37 0 c 15 4 22 9 17 13 c -6 3 23 6 63 6 c 40 0 71 -4 68 -9 z" stroke-linecap="round" />
</g>
<g transform="matrix(0.07 0 0 -0.07 155.27 465.45)"  >
<radialGradient id="SVGID_2560" gradientUnits="userSpaceOnUse" gradientTransform="matrix(1 0 0 1 1111 924)"  cx="973" cy="1462.6170104113144" r="973" fx="973" fy="1462.6170104113144">
<stop offset="0%" style="stop-color:rgba(224, 136, 136, 1);"/>
<stop offset="100%" style="stop-color:rgba(255, 0, 0, 1);"/>
</radialGradient>
<path style="stroke: none; stroke-width: 1; stroke-dasharray: none; stroke-linecap: butt; stroke-dashoffset: 0; stroke-linejoin: miter; stroke-miterlimit: 4; fill: url(#SVGID_2560); fill-rule: nonzero; opacity: 1;"  transform=" translate(-2084, -2386.62)" d="M 2418 3840 c -28 -8 -87 -50 -72 -50 c 5 0 -2 -10 -16 -21 c -14 -11 -19 -18 -13 -14 c 9 4 11 1 7 -9 c -3 -9 -10 -13 -15 -10 c -5 3 -6 -2 -3 -10 c 3 -9 1 -16 -5 -16 c -7 0 -9 -10 -5 -26 c 5 -20 4 -25 -6 -19 c -9 6 -10 0 -5 -25 c 5 -25 4 -31 -5 -25 c -10 6 -12 0 -7 -24 c 5 -23 3 -30 -5 -25 c -8 5 -9 -2 -5 -24 c 4 -20 2 -32 -4 -32 c -6 0 -8 -9 -4 -21 c 5 -16 4 -19 -6 -14 c -9 6 -11 3 -6 -8 c 3 -10 2 -17 -3 -17 c -5 0 -7 -7 -4 -15 c 4 -8 1 -15 -5 -15 c -6 0 -8 -7 -4 -17 c 5 -11 3 -14 -6 -8 c -10 6 -11 2 -6 -15 c 5 -17 4 -21 -6 -15 c -9 6 -11 3 -6 -8 c 3 -10 2 -17 -3 -17 c -5 0 -7 -6 -4 -14 c 3 -8 -3 -23 -14 -34 c -11 -11 -18 -23 -14 -26 c 3 -3 0 -6 -7 -6 c -7 0 -9 -4 -6 -10 c 3 -5 1 -10 -5 -10 c -6 0 -9 -4 -5 -10 c 3 -5 -3 -18 -15 -30 c -11 -11 -17 -20 -13 -20 c 4 0 -2 -7 -13 -16 c -10 -8 -12 -12 -4 -9 c 8 4 4 -3 -10 -16 c -14 -13 -21 -22 -15 -19 c 6 3 -3 -8 -20 -23 c -16 -16 -23 -26 -15 -22 c 8 4 1 -6 -15 -22 c -17 -15 -24 -24 -15 -18 c 8 5 -23 -30 -69 -77 c -46 -48 -88 -85 -93 -82 c -10 7 -65 -30 -97 -65 c -13 -14 -20 -20 -16 -13 c 6 11 3 11 -13 1 c -12 -7 -18 -17 -15 -23 c 3 -5 1 -6 -5 -2 c -11 6 -112 -38 -112 -50 c 0 -3 5 -2 12 2 c 7 4 8 3 4 -4 c -4 -6 -13 -9 -21 -5 c -9 3 -28 -8 -47 -28 c -17 -19 -28 -27 -24 -19 c 4 8 -7 -1 -26 -21 c -18 -19 -27 -26 -19 -15 c 8 12 -6 1 -30 -24 c -24 -25 -60 -61 -79 -80 c -20 -19 -29 -30 -20 -25 c 9 6 0 -5 -19 -24 c -20 -19 -29 -30 -21 -25 c 9 5 4 -2 -10 -15 c -14 -13 -18 -20 -10 -16 c 8 4 4 -3 -10 -15 c -14 -12 -18 -19 -10 -15 c 10 4 9 2 -2 -8 c -10 -8 -15 -17 -11 -20 c 3 -4 1 -7 -6 -7 c -7 0 -9 -4 -6 -10 c 3 -5 1 -10 -5 -10 c -6 0 -8 -4 -5 -10 c 3 -5 1 -10 -5 -10 c -6 0 -8 -4 -5 -10 c 3 -5 1 -10 -5 -10 c -6 0 -8 -4 -5 -10 c 3 -5 2 -10 -4 -10 c -6 0 -7 -7 -4 -17 c 4 -11 3 -14 -5 -9 c -8 5 -10 2 -6 -8 c 3 -9 1 -16 -5 -16 c -6 0 -8 -7 -5 -15 c 4 -8 1 -15 -5 -15 c -6 0 -8 -7 -4 -17 c 4 -11 3 -14 -6 -9 c -9 6 -10 0 -5 -20 c 5 -19 4 -25 -5 -20 c -9 6 -10 0 -5 -20 c 5 -20 4 -25 -6 -19 c -9 6 -10 0 -5 -25 c 5 -24 4 -31 -5 -25 c -9 6 -11 -5 -6 -46 c 5 -39 4 -50 -3 -39 c -8 11 -10 -11 -10 -80 c 1 -70 4 -87 10 -65 c 6 21 6 12 3 -29 c -4 -42 -3 -56 6 -51 c 8 5 9 -4 5 -32 c -5 -28 -4 -34 4 -23 c 8 11 9 7 4 -19 c -4 -24 -3 -32 5 -27 c 8 5 10 2 6 -8 c -8 -20 15 -88 27 -81 c 5 4 6 0 3 -8 c -6 -17 43 -119 89 -187 c 29 -41 223 -241 211 -216 c -3 6 7 -2 21 -19 c 15 -16 24 -23 20 -15 c -4 8 3 4 15 -10 c 12 -14 19 -18 15 -10 c -4 8 3 4 15 -10 c 12 -14 19 -18 15 -10 c -4 10 -2 9 8 -2 c 8 -10 17 -15 20 -11 c 4 3 7 1 7 -6 c 0 -7 5 -9 10 -6 c 6 3 10 1 10 -5 c 0 -6 5 -8 10 -5 c 6 3 10 1 10 -5 c 0 -6 5 -8 10 -5 c 6 3 10 2 10 -4 c 0 -6 7 -7 17 -4 c 11 4 14 3 9 -5 c -5 -8 -2 -10 8 -6 c 9 3 16 1 16 -5 c 0 -6 7 -8 17 -4 c 11 5 14 3 8 -6 c -6 -10 -2 -11 15 -6 c 16 5 20 4 15 -5 c -5 -9 -1 -10 15 -5 c 17 5 20 4 15 -5 c -6 -10 -1 -11 19 -6 c 19 5 26 3 21 -4 c -4 -7 2 -9 19 -4 c 17 4 26 2 26 -5 c 0 -8 12 -10 38 -6 c 20 4 32 3 25 -2 c -6 -5 49 -9 125 -9 c 80 0 128 3 117 7 c -12 5 0 6 30 3 c 37 -4 46 -3 35 5 c -11 8 -7 9 19 4 c 27 -5 32 -3 26 7 c -6 10 -4 12 9 7 c 21 -8 68 2 61 13 c -3 5 3 6 12 4 c 21 -5 162 61 231 108 c 26 17 85 70 132 117 c 47 47 76 79 64 71 c -11 -8 -2 3 20 24 c 23 22 34 35 26 30 c -14 -8 -14 -8 0 6 c 8 9 16 22 18 30 c 2 8 13 23 25 33 c 12 10 16 16 9 12 c -11 -6 -12 -3 -3 14 c 7 11 16 21 22 21 c 6 0 7 5 4 10 c -3 5 -1 10 5 10 c 6 0 8 4 5 10 c -3 5 -2 10 4 10 c 6 0 7 7 4 17 c -5 12 -3 14 7 8 c 10 -6 12 -4 7 8 c -3 10 -2 17 3 17 c 5 0 6 7 3 17 c -5 11 -3 14 6 8 c 10 -6 11 -2 6 15 c -5 16 -4 20 5 15 c 9 -5 10 -1 5 15 c -5 16 -4 20 4 15 c 8 -5 10 1 5 21 c -5 19 -4 25 5 20 c 9 -6 10 0 5 20 c -5 21 -4 25 6 19 c 10 -6 11 0 6 29 c -4 21 -3 36 3 36 c 6 0 8 39 6 98 c -3 71 -1 84 4 47 c 5 -33 8 14 8 140 c 0 117 -3 177 -8 155 c -4 -21 -6 12 -3 80 c 4 83 2 111 -5 100 c -8 -11 -10 1 -6 45 c 4 43 3 54 -4 40 c -7 -14 -9 -3 -5 40 c 3 43 2 54 -5 40 c -7 -14 -8 -3 -5 40 c 4 44 3 56 -5 45 c -8 -11 -9 -5 -5 25 c 4 30 3 36 -5 25 c -8 -11 -9 -5 -5 25 c 4 30 3 36 -5 25 c -8 -11 -9 -5 -5 25 c 4 30 3 36 -5 25 c -8 -11 -9 -5 -5 25 c 4 32 3 37 -6 25 c -9 -12 -10 -10 -6 12 c 8 35 -13 120 -27 111 c -6 -3 -7 -1 -3 6 c 9 14 -13 113 -24 106 c -4 -2 -5 7 -2 22 c 4 19 2 24 -8 18 c -9 -5 -11 -4 -6 4 c 10 16 -2 64 -13 56 c -5 -3 -7 5 -3 17 c 3 13 1 19 -5 15 c -7 -5 -9 1 -5 15 c 4 16 2 19 -8 13 c -9 -5 -11 -4 -6 4 c 9 14 -23 113 -34 106 c -4 -3 -6 5 -2 17 c 4 16 2 19 -8 13 c -9 -5 -11 -4 -6 4 c 9 15 -3 53 -15 46 c -5 -3 -6 2 -2 11 c 5 13 3 15 -7 9 c -9 -5 -11 -4 -6 4 c 10 16 -13 73 -27 64 c -6 -3 -7 -1 -3 6 c 9 15 -3 53 -15 46 c -5 -3 -6 2 -2 11 c 4 12 3 15 -5 10 c -8 -5 -10 -1 -5 10 c 4 11 3 15 -4 11 c -7 -5 -9 0 -6 13 c 3 12 -5 28 -23 46 c -16 15 -23 24 -16 20 c 8 -5 7 4 -4 28 c -10 19 -20 33 -24 31 c -3 -2 -12 6 -20 18 c -12 21 -12 21 6 7 c 10 -8 3 3 -15 23 c -36 39 -47 46 -36 25 c 4 -7 1 -6 -7 3 c -7 9 -19 14 -27 11 c -8 -3 -11 0 -7 7 c 5 7 -3 9 -26 5 c -25 -4 -29 -3 -18 5 c 12 9 9 11 -15 10 c -16 0 -42 -4 -57 -9 z m -285 -1684 c -3 -5 6 -7 21 -4 c 14 3 26 1 26 -4 c 0 -5 5 -6 10 -3 c 6 3 10 1 10 -5 c 0 -6 5 -8 10 -5 c 6 3 10 1 10 -6 c 0 -7 3 -10 6 -7 c 3 4 20 -8 37 -26 c 20 -20 24 -22 12 -7 l -20 26 l 27 -24 c 15 -13 24 -29 22 -36 c -3 -7 0 -16 7 -21 c 8 -5 10 -3 4 6 c -5 8 -4 11 3 6 c 6 -4 8 -14 5 -23 c -4 -11 -3 -14 5 -9 c 8 5 10 1 5 -10 c -4 -11 -3 -15 4 -11 c 7 5 9 -1 5 -15 c -3 -11 -1 -19 4 -16 c 5 4 8 -15 7 -40 c -2 -38 0 -42 6 -22 c 8 23 9 21 10 -13 c 1 -26 -3 -36 -10 -31 c -8 4 -9 -3 -4 -26 c 6 -25 4 -31 -6 -25 c -9 6 -11 3 -6 -8 c 3 -10 2 -17 -4 -17 c -6 0 -7 -4 -4 -10 c 3 -5 1 -10 -6 -10 c -7 0 -10 -3 -6 -6 c 3 -3 -7 -18 -22 -32 c -25 -25 -25 -25 -1 -7 l 25 20 l -24 -27 c -14 -16 -31 -28 -38 -28 c -8 0 -11 -5 -8 -10 c 4 -6 3 -10 -2 -9 c -20 3 -34 -2 -28 -11 c 4 -6 -1 -7 -11 -3 c -12 4 -15 3 -10 -5 c 5 -8 1 -10 -10 -5 c -11 4 -15 3 -11 -4 c 5 -7 -1 -9 -15 -5 c -11 3 -19 1 -16 -4 c 4 -5 -26 -9 -68 -9 c -41 0 -74 4 -74 9 c 0 4 -7 6 -15 2 c -8 -3 -15 -1 -15 5 c 0 6 -4 7 -10 4 c -5 -3 -10 -1 -10 6 c 0 7 -3 9 -7 6 c -3 -4 -12 1 -20 11 c -10 11 -12 12 -8 2 c 4 -8 -3 -4 -15 10 c -12 14 -27 25 -34 25 c -6 0 -10 8 -8 17 c 1 9 -3 20 -9 24 c -8 5 -9 3 -4 -6 c 5 -8 4 -11 -3 -6 c -6 4 -8 14 -5 23 c 4 11 3 14 -5 9 c -8 -5 -10 -1 -5 10 c 4 11 3 15 -4 11 c -7 -5 -9 1 -5 15 c 3 13 1 19 -5 15 c -7 -5 -9 1 -5 15 c 3 13 1 19 -5 15 c -7 -4 -10 13 -9 48 c 0 30 4 51 10 48 c 5 -4 6 5 2 21 c -4 16 -2 26 4 26 c 6 0 8 5 5 10 c -3 6 -1 10 5 10 c 6 0 8 5 5 10 c -3 6 -1 10 6 10 c 7 0 10 3 6 6 c -3 3 4 16 17 28 c 12 11 14 15 4 7 c -31 -24 -20 -6 19 30 c 20 18 31 25 23 15 c -15 -19 -14 -19 13 -2 c 25 17 40 35 15 20 c -7 -4 -8 -3 -4 4 c 4 6 14 8 23 5 c 10 -4 14 -2 10 4 c -5 7 1 9 15 5 c 13 -3 19 -1 15 5 c -5 7 1 9 15 5 c 12 -3 19 -1 15 4 c -3 5 20 9 53 9 c 33 0 56 -4 53 -9 z" stroke-linecap="round" />
</g>
<g transform="matrix(0.07 0 0 -0.07 465.6 486.84)"  >
<radialGradient id="SVGID_2561" gradientUnits="userSpaceOnUse" gradientTransform="matrix(1 0 0 1 5011.85 1111)"  cx="1463.577130599629" cy="973" r="1463.577130599629" fx="1463.577130599629" fy="973">
<stop offset="0%" style="stop-color:rgba(224, 136, 136, 1);"/>
<stop offset="100%" style="stop-color:rgba(255, 0, 0, 1);"/>
</radialGradient>
<path style="stroke: none; stroke-width: 1; stroke-dasharray: none; stroke-linecap: butt; stroke-dashoffset: 0; stroke-linejoin: miter; stroke-miterlimit: 4; fill: url(#SVGID_2561); fill-rule: nonzero; opacity: 1;"  transform=" translate(-6475.42, -2084)" d="M 6720 3050 c 20 -5 -22 -7 -100 -4 c -91 2 -127 1 -110 -6 c 18 -6 5 -8 -45 -4 c -49 3 -64 1 -50 -5 c 14 -7 3 -9 -40 -5 c -43 3 -54 2 -40 -5 c 14 -7 3 -8 -40 -5 c -45 4 -56 3 -45 -5 c 11 -9 4 -10 -30 -5 c -33 4 -41 3 -30 -5 c 11 -8 5 -9 -25 -5 c -30 4 -36 3 -25 -5 c 11 -8 5 -9 -25 -5 c -30 4 -36 3 -25 -5 c 11 -8 5 -9 -25 -5 c -30 4 -36 3 -25 -5 c 11 -8 5 -9 -25 -5 c -30 4 -36 3 -25 -5 c 11 -8 7 -9 -19 -4 c -27 5 -32 3 -26 -7 c 5 -9 4 -11 -4 -6 c -14 9 -73 -3 -66 -13 c 2 -5 -7 -6 -22 -3 c -19 4 -24 2 -18 -8 c 5 -9 4 -11 -4 -6 c -14 9 -73 -3 -66 -13 c 2 -5 -7 -6 -22 -3 c -17 3 -24 1 -19 -6 c 4 -6 -2 -8 -16 -4 c -16 4 -19 2 -13 -8 c 5 -9 4 -11 -4 -6 c -14 9 -113 -23 -106 -34 c 3 -4 -5 -6 -17 -2 c -13 3 -19 1 -15 -5 c 5 -7 -1 -9 -15 -5 c -16 4 -19 2 -13 -8 c 6 -9 4 -11 -4 -5 c -16 9 -103 -23 -96 -36 c 4 -5 -2 -6 -11 -2 c -13 5 -15 3 -9 -7 c 5 -9 4 -11 -4 -6 c -15 9 -53 -3 -46 -15 c 3 -5 -2 -6 -11 -2 c -13 5 -15 3 -9 -7 c 5 -9 4 -11 -4 -6 c -15 10 -73 -13 -65 -25 c 3 -5 -3 -6 -12 -2 c -11 4 -15 3 -11 -4 c 5 -7 0 -9 -12 -6 c -10 3 -22 -1 -26 -8 c -6 -8 -4 -10 5 -4 c 9 5 11 4 6 -4 c -4 -6 -11 -9 -16 -6 c -10 6 -94 -34 -125 -60 c -11 -9 -13 -14 -5 -10 c 8 4 2 -6 -15 -20 c -16 -15 -24 -24 -18 -21 c 9 5 11 2 7 -8 c -3 -9 -11 -13 -17 -9 c -6 4 -8 0 -4 -10 c 3 -10 2 -17 -2 -17 c -5 0 -9 -23 -9 -50 c -1 -28 3 -48 8 -45 c 4 3 6 -4 3 -14 c -3 -14 8 -33 37 -63 c 23 -24 39 -36 35 -28 c -5 12 -4 12 7 -1 c 7 -9 19 -14 27 -11 c 9 3 11 0 7 -7 c -6 -9 0 -10 20 -5 c 20 5 25 4 19 -6 c -6 -9 0 -10 25 -5 c 24 5 31 4 25 -5 c -6 -9 1 -10 25 -5 c 25 5 31 4 25 -5 c -6 -10 0 -12 24 -7 c 23 5 30 3 25 -5 c -5 -7 1 -9 20 -6 c 14 3 26 1 26 -3 c 0 -5 7 -6 15 -3 c 8 4 15 1 15 -5 c 0 -6 7 -8 17 -4 c 11 5 14 3 8 -6 c -6 -10 -2 -11 15 -6 c 17 5 21 4 15 -6 c -6 -9 -3 -11 8 -6 c 10 3 17 2 17 -3 c 0 -5 7 -7 15 -4 c 8 4 15 1 15 -5 c 0 -6 6 -8 14 -5 c 8 3 23 -3 34 -14 c 11 -11 23 -18 26 -14 c 3 3 6 -1 6 -8 c 0 -7 3 -10 7 -7 c 3 4 12 -1 20 -11 c 8 -9 11 -11 8 -4 c -6 11 -3 12 14 3 c 11 -7 21 -16 21 -22 c 0 -6 5 -7 10 -4 c 6 3 10 1 10 -6 c 0 -7 3 -10 6 -6 c 3 3 17 -6 31 -21 c 14 -15 22 -20 17 -12 c -5 9 2 4 16 -10 c 14 -14 23 -21 20 -15 c -3 6 8 -3 23 -20 c 16 -16 25 -23 21 -15 c -4 8 13 -5 37 -30 c 25 -25 65 -65 89 -90 l 45 -45 l -50 45 l -49 45 l 54 -60 c 29 -33 56 -62 59 -65 c 2 -3 1 1 -4 9 c -5 9 -4 12 3 7 c 6 -4 9 -13 6 -20 c -3 -8 12 -31 33 -52 c 21 -21 31 -35 23 -30 c -8 4 -5 -1 7 -12 c 12 -11 20 -22 17 -25 c -8 -8 36 -90 60 -110 c 11 -10 15 -16 9 -12 c -24 12 -13 -7 25 -43 c 20 -20 28 -29 17 -21 c -33 24 39 -62 102 -121 c 31 -30 49 -43 38 -29 c -11 14 0 5 24 -20 c 25 -25 40 -39 35 -31 c -5 9 2 4 15 -10 c 13 -14 20 -18 16 -10 c -4 8 3 4 15 -10 c 12 -14 19 -18 15 -10 c -4 10 -2 9 8 -2 c 8 -10 17 -15 20 -11 c 4 3 7 1 7 -6 c 0 -7 5 -9 10 -6 c 6 3 10 1 10 -5 c 0 -6 5 -8 10 -5 c 6 3 10 1 10 -5 c 0 -6 5 -8 10 -5 c 6 3 10 1 10 -5 c 0 -6 5 -8 10 -5 c 6 3 10 1 10 -5 c 0 -6 5 -8 10 -5 c 6 3 10 2 10 -4 c 0 -6 7 -7 17 -4 c 11 5 14 3 8 -6 c -6 -10 -2 -11 15 -6 c 17 5 21 4 15 -6 c -6 -9 -3 -11 8 -6 c 10 3 17 2 17 -4 c 0 -6 9 -8 21 -4 c 16 5 19 4 14 -5 c -6 -10 -1 -11 19 -6 c 20 5 26 3 21 -5 c -6 -8 2 -9 25 -4 c 23 5 30 4 26 -4 c -5 -8 5 -10 36 -5 c 31 4 39 3 28 -5 c -11 -7 20 -10 110 -10 c 82 1 118 4 105 10 c -13 6 -3 6 29 2 c 38 -4 47 -3 41 7 c -5 9 -2 10 13 6 c 27 -9 114 13 105 27 c -3 6 -1 7 6 3 c 15 -9 53 3 46 15 c -3 5 1 6 9 3 c 23 -9 176 76 226 126 c 24 25 38 36 30 24 c -8 -11 2 -2 22 20 c 21 23 59 61 85 85 c 27 24 41 39 33 35 c -9 -5 -2 4 15 19 c 16 16 23 26 15 22 c -8 -4 -4 3 10 15 c 14 12 18 19 10 15 c -8 -4 -4 3 10 15 c 14 12 18 19 10 15 c -10 -4 -9 -2 2 8 c 10 8 15 17 11 20 c -3 4 -1 7 6 7 c 7 0 9 5 6 10 c -3 6 -1 10 5 10 c 6 0 9 4 5 9 c -3 5 1 16 9 24 c 8 8 12 17 9 21 c -4 3 -1 6 6 6 c 7 0 9 5 6 10 c -3 6 -2 10 4 10 c 6 0 8 7 5 15 c -4 8 -1 15 5 15 c 6 0 8 7 4 17 c -5 11 -3 14 6 8 c 10 -6 11 -2 6 15 c -5 16 -4 20 4 15 c 8 -5 10 1 5 21 c -5 20 -4 25 6 19 c 9 -5 10 -2 5 14 c -4 13 -2 21 5 21 c 8 0 9 10 5 31 c -5 23 -4 29 4 24 c 9 -5 10 8 6 47 c -5 39 -4 49 4 38 c 8 -11 10 10 10 80 c -1 69 -4 87 -10 65 c -5 -20 -6 -9 -3 35 c 4 50 3 62 -6 50 c -9 -12 -10 -10 -6 12 c 7 32 -12 120 -24 113 c -5 -3 -6 5 -2 17 c 3 13 1 19 -5 15 c -7 -5 -9 1 -5 15 c 3 14 1 19 -6 14 c -8 -5 -10 -2 -6 9 c 4 9 -1 22 -12 31 c -11 9 -13 12 -6 9 c 8 -4 2 15 -12 44 c -15 28 -29 51 -32 51 c -3 0 -2 -5 2 -12 c 4 -7 3 -8 -5 -4 c -6 4 -9 12 -5 18 c 10 15 -61 110 -116 157 c -28 24 -48 47 -44 52 c 3 5 2 8 -3 7 c -5 -2 -24 13 -42 32 c -19 19 -30 28 -25 20 c 5 -9 -2 -4 -16 10 c -14 14 -23 21 -20 15 c 3 -6 -3 -2 -12 8 c -10 11 -18 15 -18 11 c 0 -5 -7 0 -15 10 c -8 11 -15 16 -15 11 c 0 -5 -7 0 -16 11 c -8 10 -12 13 -9 6 c 6 -11 3 -12 -14 -3 c -11 7 -21 16 -21 22 c 0 6 -4 7 -10 4 c -5 -3 -10 -2 -10 4 c 0 6 -7 7 -17 4 c -12 -5 -14 -3 -8 7 c 6 10 4 12 -8 7 c -10 -3 -17 -2 -17 4 c 0 6 -4 7 -10 4 c -5 -3 -10 -2 -10 4 c 0 6 -7 8 -15 5 c -8 -4 -15 -1 -15 5 c 0 6 -7 8 -15 5 c -8 -4 -15 -1 -15 5 c 0 6 -7 8 -15 5 c -8 -4 -15 -1 -15 6 c 0 7 -8 9 -20 5 c -12 -4 -20 -2 -20 5 c 0 6 -10 8 -26 4 c -20 -5 -25 -4 -19 5 c 5 10 -4 11 -41 6 c -36 -5 -45 -4 -34 4 c 11 8 -27 10 -135 7 c -90 -3 -130 -1 -100 3 c 42 7 34 8 -50 8 c -70 0 -90 -2 -65 -7 z m 312 -704 c -3 -5 5 -7 16 -4 c 12 4 22 2 22 -4 c 0 -5 5 -6 10 -3 c 6 3 10 1 10 -6 c 0 -7 3 -10 6 -6 c 3 3 16 -4 28 -17 c 17 -18 18 -18 6 -1 c -9 13 -5 11 10 -5 c 14 -14 34 -33 45 -43 c 11 -10 13 -16 5 -12 c -8 4 -4 -3 10 -15 c 14 -12 19 -19 13 -15 c -9 4 -11 1 -7 -9 c 3 -9 10 -14 14 -11 c 5 3 6 -5 2 -17 c -3 -13 -1 -19 5 -15 c 6 4 8 -4 6 -21 c -3 -20 -2 -23 5 -13 c 8 11 10 -1 9 -41 c -1 -33 -5 -54 -10 -51 c -6 4 -7 -5 -3 -21 c 4 -16 2 -26 -4 -26 c -6 0 -8 -4 -5 -10 c 3 -5 1 -10 -5 -10 c -6 0 -8 -4 -5 -10 c 3 -5 2 -10 -4 -10 c -6 0 -8 -6 -5 -14 c 5 -13 -48 -66 -67 -66 c -6 0 -7 -5 -4 -10 c 4 -6 3 -10 -2 -9 c -20 3 -34 -2 -28 -11 c 4 -6 -1 -7 -11 -3 c -13 5 -15 3 -9 -7 c 5 -9 4 -11 -4 -6 c -6 4 -26 3 -44 -2 c -53 -17 -139 -23 -131 -10 c 5 7 0 9 -14 6 c -12 -4 -22 -2 -22 4 c 0 5 -4 6 -10 3 c -5 -3 -10 -1 -10 5 c 0 6 -4 8 -10 5 c -5 -3 -10 -1 -10 5 c 0 6 -3 10 -7 8 c -5 -2 -30 19 -58 46 c -27 28 -43 46 -35 42 c 11 -5 11 -4 -1 6 c -9 7 -14 19 -11 27 c 3 8 0 11 -6 7 c -6 -4 -8 2 -4 16 c 3 11 1 19 -4 16 c -5 -4 -8 15 -7 40 c 2 38 0 42 -6 22 c -9 -24 -9 -24 -10 8 c -1 17 4 32 10 32 c 7 0 8 11 4 31 c -6 24 -4 30 6 24 c 9 -6 11 -3 6 8 c -3 10 -2 17 4 17 c 6 0 7 5 4 10 c -3 6 -1 10 6 10 c 7 0 10 3 7 6 c -3 3 11 22 31 42 l 37 37 l -36 -30 l -35 -30 l 34 37 c 18 20 39 34 46 32 c 7 -3 16 0 21 7 c 5 8 3 10 -6 4 c -8 -5 -11 -4 -6 3 c 4 6 14 8 23 5 c 12 -5 14 -3 8 7 c -5 8 -4 11 3 6 c 6 -4 23 -4 37 0 c 15 4 22 9 17 13 c -6 3 23 6 63 6 c 41 0 71 -4 67 -9 z" stroke-linecap="round" />
</g>
<g transform="matrix(0.07 0 0 -0.07 323.35 539.02)"  >
<path style="stroke: none; stroke-width: 1; stroke-dasharray: none; stroke-linecap: butt; stroke-dashoffset: 0; stroke-linejoin: miter; stroke-miterlimit: 4; fill: rgb(0,0,0); fill-rule: nonzero; opacity: 1;"  transform=" translate(-4462.53, -1345.5)" d="M 3555 2680 c 4 -7 -2 -9 -19 -4 c -20 5 -33 -2 -68 -36 c -24 -23 -36 -39 -28 -35 c 10 4 9 2 -2 -8 c -10 -8 -15 -17 -11 -20 c 3 -4 1 -7 -6 -7 c -8 0 -10 -7 -6 -21 c 5 -15 4 -19 -4 -15 c -16 10 -14 -57 3 -99 c 14 -32 109 -180 129 -200 c 7 -7 7 -5 2 4 c -5 9 -4 12 3 7 c 6 -4 8 -14 5 -23 c -4 -11 -3 -14 5 -9 c 8 5 10 1 5 -10 c -5 -13 -3 -15 7 -9 c 9 6 11 4 5 -4 c -9 -15 24 -93 36 -85 c 5 3 6 -3 2 -12 c -4 -11 -3 -15 4 -11 c 7 5 9 -1 5 -15 c -3 -13 -1 -19 5 -15 c 7 5 9 -1 5 -15 c -4 -16 -2 -19 8 -13 c 9 5 11 4 6 -4 c -9 -15 3 -73 14 -66 c 4 3 6 -5 2 -17 c -3 -13 -1 -19 5 -15 c 6 4 8 -3 5 -18 c -2 -14 0 -25 5 -25 c 5 0 7 -19 6 -42 c -2 -34 -1 -39 7 -23 c 7 14 8 4 4 -35 c -3 -31 -2 -50 3 -43 c 5 6 9 -41 10 -110 c 1 -82 -2 -114 -8 -97 c -6 18 -8 11 -4 -28 c 3 -36 1 -51 -7 -46 c -7 4 -8 -4 -3 -26 c 5 -25 4 -31 -5 -25 c -10 6 -12 1 -7 -23 c 4 -20 2 -32 -4 -32 c -6 0 -8 -9 -4 -20 c 4 -11 2 -20 -4 -20 c -6 0 -8 -7 -5 -15 c 4 -8 1 -15 -5 -15 c -6 0 -8 -7 -4 -17 c 5 -12 3 -14 -7 -8 c -10 6 -11 2 -6 -19 c 5 -19 3 -26 -4 -21 c -7 5 -9 -2 -4 -21 c 5 -20 4 -25 -6 -19 c -9 6 -10 0 -5 -25 c 5 -24 4 -31 -5 -25 c -8 5 -10 -12 -6 -66 c 3 -49 2 -64 -3 -44 c -7 23 -9 13 -9 -45 c 0 -58 2 -68 9 -45 c 5 20 7 5 3 -45 c -3 -55 -2 -71 6 -60 c 8 11 9 5 5 -25 c -5 -30 -4 -36 4 -25 c 8 11 9 7 4 -19 c -4 -24 -3 -32 5 -27 c 8 5 10 2 6 -8 c -8 -20 15 -88 27 -81 c 5 4 6 0 3 -8 c -8 -22 74 -177 115 -216 c 20 -19 27 -28 16 -20 c -33 24 39 -62 102 -121 c 31 -30 49 -43 38 -29 c -11 14 -3 7 19 -15 c 21 -23 35 -34 31 -26 c -4 8 3 4 14 -10 c 11 -14 21 -21 21 -16 c 0 6 7 1 16 -10 c 8 -10 13 -12 9 -4 c -4 8 3 4 15 -10 c 12 -14 19 -18 15 -10 c -4 10 -2 9 8 -2 c 8 -10 17 -15 20 -11 c 4 3 7 1 7 -6 c 0 -7 5 -9 10 -6 c 6 3 10 1 10 -5 c 0 -6 4 -8 10 -5 c 6 3 10 1 10 -5 c 0 -6 5 -8 10 -5 c 6 3 10 2 10 -4 c 0 -6 7 -7 17 -4 c 12 5 14 3 8 -7 c -6 -10 -4 -12 8 -7 c 10 3 17 2 17 -3 c 0 -5 7 -7 15 -4 c 8 4 15 1 15 -5 c 0 -6 7 -8 15 -5 c 8 4 15 1 15 -6 c 0 -7 8 -9 21 -5 c 15 5 19 4 14 -4 c -5 -8 1 -10 21 -5 c 20 5 25 4 19 -6 c -6 -9 0 -10 25 -5 c 23 5 31 4 25 -4 c -5 -9 8 -10 47 -6 c 39 5 49 4 38 -4 c -11 -8 12 -10 85 -10 c 72 1 92 4 70 10 c -20 5 -9 6 35 3 c 48 -4 61 -2 50 6 c -12 8 -9 9 11 4 c 34 -7 151 25 142 39 c -3 6 -1 7 6 3 c 16 -10 53 3 45 16 c -4 6 -2 8 4 5 c 15 -10 43 3 35 16 c -4 6 -1 7 6 2 c 16 -9 62 15 54 28 c -4 6 -1 7 6 3 c 18 -12 113 55 199 141 c 43 42 65 68 51 57 c -14 -10 -5 1 20 25 c 25 25 39 40 31 35 c -9 -5 -4 2 10 15 c 14 13 18 20 10 16 c -8 -4 -4 3 10 15 c 14 12 18 19 10 15 c -8 -4 -6 1 4 9 c 11 9 16 16 11 16 c -5 0 0 7 11 16 c 10 8 13 12 6 9 c -11 -6 -12 -3 -3 14 c 7 11 16 21 21 21 c 5 0 6 7 3 17 c -4 11 -3 14 5 9 c 8 -5 10 -2 6 8 c -3 9 -1 16 6 16 c 6 0 8 4 5 10 c -3 6 -2 10 4 10 c 6 0 7 7 4 17 c -5 11 -3 14 6 8 c 10 -6 11 -2 6 15 c -5 16 -4 20 5 15 c 9 -5 10 -1 5 15 c -5 16 -4 20 4 15 c 8 -5 10 1 5 21 c -5 19 -4 25 5 20 c 9 -6 10 0 5 20 c -5 20 -4 25 6 19 c 9 -6 10 0 5 25 c -4 18 -3 30 1 27 c 5 -3 9 64 9 148 c 0 84 -4 148 -8 142 c -4 -7 -5 6 -2 28 c 5 31 4 36 -5 25 c -8 -12 -9 -9 -4 12 c 7 31 -33 161 -47 153 c -5 -4 -6 0 -3 8 c 5 14 -40 117 -52 117 c -3 0 -2 -5 2 -12 c 4 -7 3 -8 -4 -4 c -6 4 -9 13 -6 20 c 9 23 -110 166 -258 311 c -79 77 -127 122 -108 99 c 19 -22 1 -6 -40 36 c -41 42 -68 66 -60 55 c 8 -12 -5 -1 -29 24 c -25 25 -39 37 -31 26 c 7 -11 -4 -2 -25 20 c -20 22 -33 33 -29 25 c 5 -9 -2 -4 -16 10 c -14 14 -21 19 -16 10 c 4 -8 -9 3 -29 25 c -21 22 -34 33 -29 25 c 5 -9 1 -7 -10 5 c -10 11 -22 20 -27 20 c -6 0 -14 7 -19 15 c -5 8 -10 11 -10 5 c 0 -5 -10 1 -21 15 c -11 14 -18 18 -14 10 c 4 -8 -3 -4 -15 10 c -12 14 -19 18 -15 10 c 4 -8 -3 -4 -15 10 c -12 14 -19 18 -15 10 c 4 -8 -3 -4 -15 10 c -12 14 -19 18 -15 10 c 4 -8 -3 -4 -15 10 c -12 14 -19 18 -15 10 c 4 -8 -1 -6 -9 4 c -9 11 -16 16 -16 11 c 0 -5 -7 0 -16 11 c -8 10 -13 12 -9 4 c 4 -10 2 -9 -8 2 c -8 10 -17 15 -20 11 c -4 -3 -7 -1 -7 6 c 0 7 -4 10 -10 6 c -5 -3 -18 3 -29 14 c -11 11 -22 17 -25 14 c -3 -4 -6 -1 -6 6 c 0 7 -4 10 -10 6 c -5 -3 -18 3 -29 14 c -11 11 -22 17 -25 13 c -3 -3 -6 0 -6 6 c 0 7 -3 11 -7 11 c -22 -4 -33 2 -27 13 c 5 8 2 9 -9 5 c -10 -3 -17 -2 -17 4 c 0 6 -4 7 -10 4 c -5 -3 -10 -1 -10 5 c 0 6 -4 8 -10 5 c -5 -3 -10 -1 -10 5 c 0 6 -4 8 -10 5 c -5 -3 -10 -1 -10 5 c 0 6 -4 8 -10 5 c -5 -3 -10 -1 -10 5 c 0 6 -4 8 -10 5 c -5 -3 -10 -1 -10 5 c 0 6 -4 8 -10 5 c -5 -3 -10 -1 -10 5 c 0 6 -4 8 -10 5 c -5 -3 -10 -1 -10 5 c 0 6 -4 9 -9 5 c -14 -8 -61 16 -54 28 c 4 6 0 8 -10 4 c -10 -3 -17 -2 -17 3 c 0 5 -7 7 -15 4 c -8 -4 -15 -1 -15 6 c 0 6 -4 8 -10 5 c -5 -3 -10 -2 -10 4 c 0 6 -7 8 -15 5 c -8 -4 -15 -1 -15 6 c 0 6 -4 8 -10 5 c -5 -3 -10 -1 -10 5 c 0 7 -7 10 -15 6 c -8 -3 -15 -1 -15 4 c 0 5 -7 6 -17 3 c -12 -5 -14 -3 -8 7 c 6 10 4 12 -8 7 c -10 -3 -17 -2 -17 3 c 0 5 -7 6 -17 3 c -11 -5 -14 -3 -8 6 c 6 10 2 11 -15 6 c -16 -5 -20 -4 -15 5 c 5 9 1 10 -15 5 c -16 -5 -20 -4 -15 5 c 5 9 2 10 -14 5 c -12 -4 -21 -2 -21 4 c 0 6 -7 8 -15 5 c -8 -4 -15 -1 -15 6 c 0 7 -8 9 -20 5 c -11 -4 -20 -2 -20 4 c 0 6 -16 11 -36 11 c -22 0 -33 -4 -29 -10 z m 1039 -1431 c -4 -8 3 -9 26 -4 c 25 6 31 4 25 -6 c -6 -9 -3 -11 8 -6 c 10 3 17 2 17 -4 c 0 -6 5 -7 10 -4 c 6 3 10 1 10 -6 c 0 -7 3 -10 6 -6 c 4 3 14 -2 23 -11 c 9 -10 14 -13 11 -7 c -3 6 4 0 15 -14 c 11 -14 34 -39 50 -55 c 17 -16 25 -26 18 -22 c -9 5 -8 -5 2 -35 c 8 -23 15 -51 16 -63 c 1 -19 2 -18 9 4 c 6 20 8 14 9 -28 c 1 -37 -2 -51 -10 -46 c -8 4 -9 -3 -4 -26 c 5 -23 4 -30 -4 -26 c -7 5 -9 1 -5 -8 c 3 -9 1 -16 -6 -16 c -6 0 -8 -4 -5 -10 c 3 -5 1 -10 -5 -10 c -6 0 -10 -3 -8 -7 c 2 -5 -19 -30 -46 -58 c -28 -27 -46 -43 -41 -35 c 7 12 6 13 -6 4 c -8 -7 -33 -18 -57 -25 c -23 -7 -38 -15 -32 -19 c 6 -4 -16 -6 -49 -6 c -33 0 -57 5 -54 10 c 4 5 -5 6 -21 2 c -16 -4 -26 -2 -26 4 c 0 6 -4 8 -10 5 c -5 -3 -10 -1 -10 5 c 0 6 -4 8 -10 5 c -5 -3 -10 -1 -10 5 c 0 6 -3 10 -7 8 c -5 -2 -30 19 -58 46 c -27 28 -43 46 -35 42 c 11 -5 11 -4 -1 6 c -9 7 -14 19 -11 27 c 3 8 0 11 -6 7 c -6 -4 -8 2 -4 16 c 3 12 1 19 -5 15 c -5 -3 -8 7 -6 26 c 2 29 2 30 -6 7 c -7 -20 -9 -13 -9 32 c 1 36 4 55 11 51 c 6 -4 8 4 3 21 c -4 16 -2 26 4 26 c 6 0 8 5 5 10 c -3 6 -2 10 4 10 c 6 0 8 7 5 15 c -4 9 8 28 27 47 c 19 18 33 36 31 40 c -1 4 4 5 12 2 c 8 -3 17 0 22 7 c 5 8 3 10 -6 4 c -8 -5 -11 -4 -6 3 c 4 6 13 9 20 6 c 8 -3 17 0 22 7 c 5 8 3 10 -6 4 c -8 -5 -11 -4 -7 3 c 4 5 17 8 29 4 c 13 -3 19 -1 15 5 c -5 7 1 9 15 6 c 17 -3 19 -2 10 5 c -9 6 4 8 40 6 c 39 -3 47 -1 28 5 c -24 9 -24 9 8 10 c 22 1 31 -3 26 -10 z" stroke-linecap="round" />
</g>
</svg>